<svg xmlns="http://www.w3.org/2000/svg" xmlns:xlink="http://www.w3.org/1999/xlink" xmlns:s="https://github.com/nturley/netlistsvg" width="427" height="577.5">
  <style>svg {
    stroke:#000;
    fill:none;
  }
  text {
    fill:#000;
    stroke:none;
    font-size:10px;
    font-weight: bold;
    font-family: "Courier New", monospace;
  }
  .nodelabel {
    text-anchor: middle;
  }
  .inputPortLabel {
    text-anchor: end;
  }
  .splitjoinBody {
    fill:#000;
  }</style>
  <g s:type="generic" transform="translate(252,22)" s:width="30" s:height="40" id="cell_genblk1[0].pr">
    <text x="15" y="-4" class="nodelabel cell_genblk1[0].pr" s:attribute="ref">PIXEL_ROW 1</text>
    <rect width="30" height="120" s:generic="body" class="cell_genblk1[0].pr"/>
    <g transform="translate(0,10)" s:x="0" s:y="10" s:pid="in0" id="port_genblk1[0].pr~COUNTER">
      <text x="-3" y="-4" class="inputPortLabel cell_genblk1[0].pr">COUNTER</text>
    </g>
    <g transform="translate(0,30)" s:x="0" s:y="10" s:pid="in0" id="port_genblk1[0].pr~ERASE">
      <text x="-3" y="-4" class="inputPortLabel cell_genblk1[0].pr">ERASE</text>
    </g>
    <g transform="translate(0,50)" s:x="0" s:y="10" s:pid="in0" id="port_genblk1[0].pr~EXPOSE">
      <text x="-3" y="-4" class="inputPortLabel cell_genblk1[0].pr">EXPOSE</text>
    </g>
    <g transform="translate(0,70)" s:x="0" s:y="10" s:pid="in0" id="port_genblk1[0].pr~RAMP">
      <text x="-3" y="-4" class="inputPortLabel cell_genblk1[0].pr">RAMP</text>
    </g>
    <g transform="translate(0,90)" s:x="0" s:y="10" s:pid="in0" id="port_genblk1[0].pr~READ">
      <text x="-3" y="-4" class="inputPortLabel cell_genblk1[0].pr">READ</text>
    </g>
    <g transform="translate(0,110)" s:x="0" s:y="10" s:pid="in0" id="port_genblk1[0].pr~VBN1">
      <text x="-3" y="-4" class="inputPortLabel cell_genblk1[0].pr">VBN1</text>
    </g>
    <g transform="translate(30,10)" s:x="30" s:y="10" s:pid="out0" id="port_genblk1[0].pr~DATA_OUT">
      <text x="5" y="-4" style="fill:#000; stroke:none" class="cell_genblk1[0].pr">DATA_OUT</text>
    </g>
  </g>
  <g s:type="generic" transform="translate(252,190)" s:width="30" s:height="40" id="cell_genblk1[1].pr">
    <text x="15" y="-4" class="nodelabel cell_genblk1[1].pr" s:attribute="ref">PIXEL_ROW 2</text>
    <rect width="30" height="120" s:generic="body" class="cell_genblk1[1].pr"/>
    <g transform="translate(0,10)" s:x="0" s:y="10" s:pid="in0" id="port_genblk1[1].pr~COUNTER">
      <text x="-3" y="-4" class="inputPortLabel cell_genblk1[1].pr">COUNTER</text>
    </g>
    <g transform="translate(0,30)" s:x="0" s:y="10" s:pid="in0" id="port_genblk1[1].pr~ERASE">
      <text x="-3" y="-4" class="inputPortLabel cell_genblk1[1].pr">ERASE</text>
    </g>
    <g transform="translate(0,50)" s:x="0" s:y="10" s:pid="in0" id="port_genblk1[1].pr~EXPOSE">
      <text x="-3" y="-4" class="inputPortLabel cell_genblk1[1].pr">EXPOSE</text>
    </g>
    <g transform="translate(0,70)" s:x="0" s:y="10" s:pid="in0" id="port_genblk1[1].pr~RAMP">
      <text x="-3" y="-4" class="inputPortLabel cell_genblk1[1].pr">RAMP</text>
    </g>
    <g transform="translate(0,90)" s:x="0" s:y="10" s:pid="in0" id="port_genblk1[1].pr~READ">
      <text x="-3" y="-4" class="inputPortLabel cell_genblk1[1].pr">READ</text>
    </g>
    <g transform="translate(0,110)" s:x="0" s:y="10" s:pid="in0" id="port_genblk1[1].pr~VBN1">
      <text x="-3" y="-4" class="inputPortLabel cell_genblk1[1].pr">VBN1</text>
    </g>
    <g transform="translate(30,10)" s:x="30" s:y="10" s:pid="out0" id="port_genblk1[1].pr~DATA_OUT">
      <text x="5" y="-4" style="fill:#000; stroke:none" class="cell_genblk1[1].pr">DATA_OUT</text>
    </g>
  </g>
  <g s:type="generic" transform="translate(252,358)" s:width="30" s:height="40" id="cell_genblk1[2].pr">
    <text x="15" y="-4" class="nodelabel cell_genblk1[2].pr" s:attribute="ref">PIXEL_ROW 3</text>
    <rect width="30" height="120" s:generic="body" class="cell_genblk1[2].pr"/>
    <g transform="translate(0,10)" s:x="0" s:y="10" s:pid="in0" id="port_genblk1[2].pr~COUNTER">
      <text x="-3" y="-4" class="inputPortLabel cell_genblk1[2].pr">COUNTER</text>
    </g>
    <g transform="translate(0,30)" s:x="0" s:y="10" s:pid="in0" id="port_genblk1[2].pr~ERASE">
      <text x="-3" y="-4" class="inputPortLabel cell_genblk1[2].pr">ERASE</text>
    </g>
    <g transform="translate(0,50)" s:x="0" s:y="10" s:pid="in0" id="port_genblk1[2].pr~EXPOSE">
      <text x="-3" y="-4" class="inputPortLabel cell_genblk1[2].pr">EXPOSE</text>
    </g>
    <g transform="translate(0,70)" s:x="0" s:y="10" s:pid="in0" id="port_genblk1[2].pr~RAMP">
      <text x="-3" y="-4" class="inputPortLabel cell_genblk1[2].pr">RAMP</text>
    </g>
    <g transform="translate(0,90)" s:x="0" s:y="10" s:pid="in0" id="port_genblk1[2].pr~READ">
      <text x="-3" y="-4" class="inputPortLabel cell_genblk1[2].pr">READ</text>
    </g>
    <g transform="translate(0,110)" s:x="0" s:y="10" s:pid="in0" id="port_genblk1[2].pr~VBN1">
      <text x="-3" y="-4" class="inputPortLabel cell_genblk1[2].pr">VBN1</text>
    </g>
    <g transform="translate(30,10)" s:x="30" s:y="10" s:pid="out0" id="port_genblk1[2].pr~DATA_OUT">
      <text x="5" y="-4" style="fill:#000; stroke:none" class="cell_genblk1[2].pr">DATA_OUT</text>
    </g>
  </g>
  <g s:type="inputExt" transform="translate(77,545.5)" s:width="30" s:height="20" id="cell_VBN1">
    <text x="15" y="-4" class="nodelabel cell_VBN1" s:attribute="ref">VBN1</text>
    <s:alias val="$_inputExt_"/>
    <path d="M0,0 L0,20 L15,20 L30,10 L15,0 Z" class="cell_VBN1"/>
    <g s:x="28" s:y="10" s:pid="Y"/>
  </g>
  <g s:type="inputExt" transform="translate(77,385.5)" s:width="30" s:height="20" id="cell_RAMP">
    <text x="15" y="-4" class="nodelabel cell_RAMP" s:attribute="ref">RAMP</text>
    <s:alias val="$_inputExt_"/>
    <path d="M0,0 L0,20 L15,20 L30,10 L15,0 Z" class="cell_RAMP"/>
    <g s:x="28" s:y="10" s:pid="Y"/>
  </g>
  <g s:type="inputExt" transform="translate(77,255.5)" s:width="30" s:height="20" id="cell_ERASE">
    <text x="15" y="-4" class="nodelabel cell_ERASE" s:attribute="ref">ERASE</text>
    <s:alias val="$_inputExt_"/>
    <path d="M0,0 L0,20 L15,20 L30,10 L15,0 Z" class="cell_ERASE"/>
    <g s:x="28" s:y="10" s:pid="Y"/>
  </g>
  <g s:type="inputExt" transform="translate(77,320.5)" s:width="30" s:height="20" id="cell_EXPOSE">
    <text x="15" y="-4" class="nodelabel cell_EXPOSE" s:attribute="ref">EXPOSE</text>
    <s:alias val="$_inputExt_"/>
    <path d="M0,0 L0,20 L15,20 L30,10 L15,0 Z" class="cell_EXPOSE"/>
    <g s:x="28" s:y="10" s:pid="Y"/>
  </g>
  <g s:type="inputExt" transform="translate(12,451)" s:width="30" s:height="20" id="cell_READ">
    <text x="15" y="-4" class="nodelabel cell_READ" s:attribute="ref">READ</text>
    <s:alias val="$_inputExt_"/>
    <path d="M0,0 L0,20 L15,20 L30,10 L15,0 Z" class="cell_READ"/>
    <g s:x="28" s:y="10" s:pid="Y"/>
  </g>
  <g s:type="inputExt" transform="translate(77,190.5)" s:width="30" s:height="20" id="cell_COUNTER">
    <text x="15" y="-4" class="nodelabel cell_COUNTER" s:attribute="ref">COUNTER</text>
    <s:alias val="$_inputExt_"/>
    <path d="M0,0 L0,20 L15,20 L30,10 L15,0 Z" class="cell_COUNTER"/>
    <g s:x="28" s:y="10" s:pid="Y"/>
  </g>
  <g s:type="outputExt" transform="translate(367,22.5)" s:width="30" s:height="20" id="cell_DATA_OUT">
    <text x="15" y="-4" class="nodelabel cell_DATA_OUT" s:attribute="ref">DATA_OUT</text>
    <s:alias val="$_outputExt_"/>
    <path d="M30,0 L30,20 L15,20 L0,10 L15,0 Z" class="cell_DATA_OUT"/>
    <g s:x="0" s:y="10" s:pid="A"/>
  </g>
  <g s:type="split" transform="translate(98.75,440.5)" s:width="5" s:height="40" id="cell_$split$,6,7,8,">
    <rect width="5" height="60" class="splitjoinBody" s:generic="body"/>
    <s:alias val="$_split_"/>
    <g s:x="0" s:y="20" s:pid="in"/>
    <g transform="translate(4,10)" s:x="4" s:y="10" s:pid="out0">
      <text x="5" y="-4">0</text>
    </g>
    <g transform="translate(4,30)" s:x="4" s:y="10" s:pid="out0">
      <text x="5" y="-4">1</text>
    </g>
    <g transform="translate(4,50)" s:x="4" s:y="10" s:pid="out0">
      <text x="5" y="-4">2</text>
    </g>
  </g>
  <line x1="105" x2="129" y1="200.5" y2="200.5" class="net_9,10,11,12,13,14,15,16"/>
  <line x1="129" x2="129" y1="200.5" y2="32.5" class="net_9,10,11,12,13,14,15,16"/>
  <circle cx="129" cy="200.5" r="2" style="fill:#000" class="net_9,10,11,12,13,14,15,16"/>
  <line x1="129" x2="252" y1="32.5" y2="32.5" class="net_9,10,11,12,13,14,15,16"/>
  <line x1="105" x2="252" y1="200.5" y2="200.5" class="net_9,10,11,12,13,14,15,16"/>
  <line x1="105" x2="129" y1="200.5" y2="200.5" class="net_9,10,11,12,13,14,15,16"/>
  <line x1="129" x2="129" y1="200.5" y2="368.5" class="net_9,10,11,12,13,14,15,16"/>
  <line x1="129" x2="252" y1="368.5" y2="368.5" class="net_9,10,11,12,13,14,15,16"/>
  <line x1="105" x2="139" y1="265.5" y2="265.5" class="net_4"/>
  <line x1="139" x2="139" y1="265.5" y2="52.5" class="net_4"/>
  <circle cx="139" cy="265.5" r="2" style="fill:#000" class="net_4"/>
  <line x1="139" x2="252" y1="52.5" y2="52.5" class="net_4"/>
  <line x1="105" x2="139" y1="265.5" y2="265.5" class="net_4"/>
  <line x1="139" x2="139" y1="265.5" y2="220.5" class="net_4"/>
  <circle cx="139" cy="220.5" r="2" style="fill:#000" class="net_4"/>
  <line x1="139" x2="252" y1="220.5" y2="220.5" class="net_4"/>
  <line x1="105" x2="139" y1="265.5" y2="265.5" class="net_4"/>
  <line x1="139" x2="139" y1="265.5" y2="388.5" class="net_4"/>
  <line x1="139" x2="252" y1="388.5" y2="388.5" class="net_4"/>
  <line x1="105" x2="149" y1="330.5" y2="330.5" class="net_5"/>
  <line x1="149" x2="149" y1="330.5" y2="72.5" class="net_5"/>
  <circle cx="149" cy="330.5" r="2" style="fill:#000" class="net_5"/>
  <line x1="149" x2="252" y1="72.5" y2="72.5" class="net_5"/>
  <line x1="105" x2="149" y1="330.5" y2="330.5" class="net_5"/>
  <line x1="149" x2="149" y1="330.5" y2="240.5" class="net_5"/>
  <circle cx="149" cy="240.5" r="2" style="fill:#000" class="net_5"/>
  <line x1="149" x2="252" y1="240.5" y2="240.5" class="net_5"/>
  <line x1="105" x2="149" y1="330.5" y2="330.5" class="net_5"/>
  <line x1="149" x2="149" y1="330.5" y2="408.5" class="net_5"/>
  <line x1="149" x2="252" y1="408.5" y2="408.5" class="net_5"/>
  <line x1="105" x2="169" y1="395.5" y2="395.5" class="net_3"/>
  <line x1="169" x2="169" y1="395.5" y2="92.5" class="net_3"/>
  <circle cx="169" cy="395.5" r="2" style="fill:#000" class="net_3"/>
  <line x1="169" x2="252" y1="92.5" y2="92.5" class="net_3"/>
  <line x1="105" x2="169" y1="395.5" y2="395.5" class="net_3"/>
  <line x1="169" x2="169" y1="395.5" y2="260.5" class="net_3"/>
  <circle cx="169" cy="260.5" r="2" style="fill:#000" class="net_3"/>
  <line x1="169" x2="252" y1="260.5" y2="260.5" class="net_3"/>
  <line x1="105" x2="169" y1="395.5" y2="395.5" class="net_3"/>
  <line x1="169" x2="169" y1="395.5" y2="428.5" class="net_3"/>
  <line x1="169" x2="252" y1="428.5" y2="428.5" class="net_3"/>
  <line x1="103.75" x2="159" y1="451" y2="451" class="net_6"/>
  <line x1="159" x2="159" y1="451" y2="112.5" class="net_6"/>
  <line x1="159" x2="252" y1="112.5" y2="112.5" class="net_6"/>
  <line x1="105" x2="199" y1="555.5" y2="555.5" class="net_2"/>
  <line x1="199" x2="199" y1="555.5" y2="132.5" class="net_2"/>
  <line x1="199" x2="252" y1="132.5" y2="132.5" class="net_2"/>
  <line x1="105" x2="199" y1="555.5" y2="555.5" class="net_2"/>
  <line x1="199" x2="199" y1="555.5" y2="300.5" class="net_2"/>
  <circle cx="199" cy="300.5" r="2" style="fill:#000" class="net_2"/>
  <line x1="199" x2="252" y1="300.5" y2="300.5" class="net_2"/>
  <line x1="105" x2="199" y1="555.5" y2="555.5" class="net_2"/>
  <line x1="199" x2="199" y1="555.5" y2="468.5" class="net_2"/>
  <circle cx="199" cy="468.5" r="2" style="fill:#000" class="net_2"/>
  <line x1="199" x2="252" y1="468.5" y2="468.5" class="net_2"/>
  <line x1="103.75" x2="179" y1="471" y2="471" class="net_7"/>
  <line x1="179" x2="179" y1="471" y2="280.5" class="net_7"/>
  <line x1="179" x2="252" y1="280.5" y2="280.5" class="net_7"/>
  <line x1="103.75" x2="189" y1="491" y2="491" class="net_8"/>
  <line x1="189" x2="189" y1="491" y2="448.5" class="net_8"/>
  <line x1="189" x2="252" y1="448.5" y2="448.5" class="net_8"/>
  <line x1="283" x2="367" y1="32.5" y2="32.5" class="net_17,18,19,20,21,22,23,24,25"/>
  <line x1="283" x2="342" y1="200.5" y2="200.5" class="net_17,18,19,20,21,22,23,24,25"/>
  <line x1="342" x2="342" y1="200.5" y2="32.5" class="net_17,18,19,20,21,22,23,24,25"/>
  <circle cx="342" cy="200.5" r="2" style="fill:#000" class="net_17,18,19,20,21,22,23,24,25"/>
  <circle cx="342" cy="32.5" r="2" style="fill:#000" class="net_17,18,19,20,21,22,23,24,25"/>
  <line x1="342" x2="367" y1="32.5" y2="32.5" class="net_17,18,19,20,21,22,23,24,25"/>
  <line x1="283" x2="342" y1="368.5" y2="368.5" class="net_17,18,19,20,21,22,23,24,25"/>
  <line x1="342" x2="342" y1="368.5" y2="32.5" class="net_17,18,19,20,21,22,23,24,25"/>
  <line x1="342" x2="367" y1="32.5" y2="32.5" class="net_17,18,19,20,21,22,23,24,25"/>
  <line x1="40" x2="98.75" y1="461" y2="461" class="net_6,7,8"/>
</svg>
