<svg xmlns="http://www.w3.org/2000/svg" xmlns:xlink="http://www.w3.org/1999/xlink" xmlns:s="https://github.com/nturley/netlistsvg" width="1991" height="853">
  <style>svg {
    stroke:#000;
    fill:none;
  }
  text {
    fill:#000;
    stroke:none;
    font-size:10px;
    font-weight: bold;
    font-family: "Courier New", monospace;
  }
  .nodelabel {
    text-anchor: middle;
  }
  .inputPortLabel {
    text-anchor: end;
  }
  .splitjoinBody {
    fill:#000;
  }</style>
  <g s:type="not" transform="translate(1672,400)" s:width="30" s:height="20" id="cell_$abc$28296$auto$blifparse.cc:381:parse_blif$28297">
    <s:alias val="$_NOT_"/>
    <s:alias val="$not"/>
    <s:alias val="$logic_not"/>
    <s:alias val="NOT"/>
    <path d="M0,0 L0,20 L20,10 Z" fill="#ffffff" class="cell_$abc$28296$auto$blifparse.cc:381:parse_blif$28297"/>
    <circle cx="23" cy="10" r="3" fill="#ffffff" class="cell_$abc$28296$auto$blifparse.cc:381:parse_blif$28297"/>
    <g s:x="0" s:y="10" s:pid="A"/>
    <g s:x="25" s:y="10" s:pid="Y"/>
  </g>
  <g s:type="not" transform="translate(1273,599)" s:width="30" s:height="20" id="cell_$abc$28296$auto$blifparse.cc:381:parse_blif$28298">
    <s:alias val="$_NOT_"/>
    <s:alias val="$not"/>
    <s:alias val="$logic_not"/>
    <s:alias val="NOT"/>
    <path d="M0,0 L0,20 L20,10 Z" fill="#ffffff" class="cell_$abc$28296$auto$blifparse.cc:381:parse_blif$28298"/>
    <circle cx="23" cy="10" r="3" fill="#ffffff" class="cell_$abc$28296$auto$blifparse.cc:381:parse_blif$28298"/>
    <g s:x="0" s:y="10" s:pid="A"/>
    <g s:x="25" s:y="10" s:pid="Y"/>
  </g>
  <g s:type="not" transform="translate(1811,94)" s:width="30" s:height="20" id="cell_$abc$28296$auto$blifparse.cc:381:parse_blif$28299">
    <s:alias val="$_NOT_"/>
    <s:alias val="$not"/>
    <s:alias val="$logic_not"/>
    <s:alias val="NOT"/>
    <path d="M0,0 L0,20 L20,10 Z" fill="#ffffff" class="cell_$abc$28296$auto$blifparse.cc:381:parse_blif$28299"/>
    <circle cx="23" cy="10" r="3" fill="#ffffff" class="cell_$abc$28296$auto$blifparse.cc:381:parse_blif$28299"/>
    <g s:x="0" s:y="10" s:pid="A"/>
    <g s:x="25" s:y="10" s:pid="Y"/>
  </g>
  <g s:type="nand" transform="translate(1808,405)" s:width="30" s:height="25" id="cell_$abc$28296$auto$blifparse.cc:381:parse_blif$28300">
    <s:alias val="$nand"/>
    <s:alias val="$logic_nand"/>
    <s:alias val="$_NAND_"/>
    <s:alias val="$_ANDNOT_"/>
    <s:alias val="NAND"/>
    <path d="M0,0 L0,25 L15,25 A15 12.5 0 0 0 15,0 Z" fill="#ffffff" class="cell_$abc$28296$auto$blifparse.cc:381:parse_blif$28300"/>
    <circle cx="34" cy="12.5" r="3" fill="#ffffff" class="cell_$abc$28296$auto$blifparse.cc:381:parse_blif$28300"/>
    <g s:x="0" s:y="5" s:pid="A"/>
    <g s:x="0" s:y="20" s:pid="B"/>
    <g s:x="36" s:y="12.5" s:pid="Y"/>
  </g>
  <g s:type="reduce_nor" transform="translate(1879,397.5)" s:width="33" s:height="25" id="cell_$abc$28296$auto$blifparse.cc:381:parse_blif$28301">
    <s:alias val="$nor"/>
    <s:alias val="$reduce_nor"/>
    <s:alias val="$_NOR_"/>
    <s:alias val="$_ORNOT_"/>
    <s:alias val="NOR"/>
    <path d="M0,25 L0,25 L15,25 A15 12.5 0 0 0 15,0 L0,0 A30 25 0 0 1 0,25 Z" fill="#ffffff" class="cell_$abc$28296$auto$blifparse.cc:381:parse_blif$28301"/>
    <circle cx="34" cy="12.5" r="3" fill="#ffffff" class="cell_$abc$28296$auto$blifparse.cc:381:parse_blif$28301"/>
    <g s:x="3" s:y="5" s:pid="A"/>
    <g s:x="3" s:y="20" s:pid="B"/>
    <g s:x="36" s:y="12.5" s:pid="Y"/>
  </g>
  <g s:type="reduce_nor" transform="translate(1808,465)" s:width="33" s:height="25" id="cell_$abc$28296$auto$blifparse.cc:381:parse_blif$28302">
    <s:alias val="$nor"/>
    <s:alias val="$reduce_nor"/>
    <s:alias val="$_NOR_"/>
    <s:alias val="$_ORNOT_"/>
    <s:alias val="NOR"/>
    <path d="M0,25 L0,25 L15,25 A15 12.5 0 0 0 15,0 L0,0 A30 25 0 0 1 0,25 Z" fill="#ffffff" class="cell_$abc$28296$auto$blifparse.cc:381:parse_blif$28302"/>
    <circle cx="34" cy="12.5" r="3" fill="#ffffff" class="cell_$abc$28296$auto$blifparse.cc:381:parse_blif$28302"/>
    <g s:x="3" s:y="5" s:pid="A"/>
    <g s:x="3" s:y="20" s:pid="B"/>
    <g s:x="36" s:y="12.5" s:pid="Y"/>
  </g>
  <g s:type="nand" transform="translate(1879,104)" s:width="30" s:height="25" id="cell_$abc$28296$auto$blifparse.cc:381:parse_blif$28303">
    <s:alias val="$nand"/>
    <s:alias val="$logic_nand"/>
    <s:alias val="$_NAND_"/>
    <s:alias val="$_ANDNOT_"/>
    <s:alias val="NAND"/>
    <path d="M0,0 L0,25 L15,25 A15 12.5 0 0 0 15,0 Z" fill="#ffffff" class="cell_$abc$28296$auto$blifparse.cc:381:parse_blif$28303"/>
    <circle cx="34" cy="12.5" r="3" fill="#ffffff" class="cell_$abc$28296$auto$blifparse.cc:381:parse_blif$28303"/>
    <g s:x="0" s:y="5" s:pid="A"/>
    <g s:x="0" s:y="20" s:pid="B"/>
    <g s:x="36" s:y="12.5" s:pid="Y"/>
  </g>
  <g s:type="reduce_nor" transform="translate(417,166.5)" s:width="33" s:height="25" id="cell_$abc$28296$auto$blifparse.cc:381:parse_blif$28304">
    <s:alias val="$nor"/>
    <s:alias val="$reduce_nor"/>
    <s:alias val="$_NOR_"/>
    <s:alias val="$_ORNOT_"/>
    <s:alias val="NOR"/>
    <path d="M0,25 L0,25 L15,25 A15 12.5 0 0 0 15,0 L0,0 A30 25 0 0 1 0,25 Z" fill="#ffffff" class="cell_$abc$28296$auto$blifparse.cc:381:parse_blif$28304"/>
    <circle cx="34" cy="12.5" r="3" fill="#ffffff" class="cell_$abc$28296$auto$blifparse.cc:381:parse_blif$28304"/>
    <g s:x="3" s:y="5" s:pid="A"/>
    <g s:x="3" s:y="20" s:pid="B"/>
    <g s:x="36" s:y="12.5" s:pid="Y"/>
  </g>
  <g s:type="reduce_nor" transform="translate(1879,480)" s:width="33" s:height="25" id="cell_$abc$28296$auto$blifparse.cc:381:parse_blif$28305">
    <s:alias val="$nor"/>
    <s:alias val="$reduce_nor"/>
    <s:alias val="$_NOR_"/>
    <s:alias val="$_ORNOT_"/>
    <s:alias val="NOR"/>
    <path d="M0,25 L0,25 L15,25 A15 12.5 0 0 0 15,0 L0,0 A30 25 0 0 1 0,25 Z" fill="#ffffff" class="cell_$abc$28296$auto$blifparse.cc:381:parse_blif$28305"/>
    <circle cx="34" cy="12.5" r="3" fill="#ffffff" class="cell_$abc$28296$auto$blifparse.cc:381:parse_blif$28305"/>
    <g s:x="3" s:y="5" s:pid="A"/>
    <g s:x="3" s:y="20" s:pid="B"/>
    <g s:x="36" s:y="12.5" s:pid="Y"/>
  </g>
  <g s:type="reduce_nor" transform="translate(1808,34)" s:width="33" s:height="25" id="cell_$abc$28296$auto$blifparse.cc:381:parse_blif$28306">
    <s:alias val="$nor"/>
    <s:alias val="$reduce_nor"/>
    <s:alias val="$_NOR_"/>
    <s:alias val="$_ORNOT_"/>
    <s:alias val="NOR"/>
    <path d="M0,25 L0,25 L15,25 A15 12.5 0 0 0 15,0 L0,0 A30 25 0 0 1 0,25 Z" fill="#ffffff" class="cell_$abc$28296$auto$blifparse.cc:381:parse_blif$28306"/>
    <circle cx="34" cy="12.5" r="3" fill="#ffffff" class="cell_$abc$28296$auto$blifparse.cc:381:parse_blif$28306"/>
    <g s:x="3" s:y="5" s:pid="A"/>
    <g s:x="3" s:y="20" s:pid="B"/>
    <g s:x="36" s:y="12.5" s:pid="Y"/>
  </g>
  <g s:type="reduce_nor" transform="translate(1879,26.5)" s:width="33" s:height="25" id="cell_$abc$28296$auto$blifparse.cc:381:parse_blif$28307">
    <s:alias val="$nor"/>
    <s:alias val="$reduce_nor"/>
    <s:alias val="$_NOR_"/>
    <s:alias val="$_ORNOT_"/>
    <s:alias val="NOR"/>
    <path d="M0,25 L0,25 L15,25 A15 12.5 0 0 0 15,0 L0,0 A30 25 0 0 1 0,25 Z" fill="#ffffff" class="cell_$abc$28296$auto$blifparse.cc:381:parse_blif$28307"/>
    <circle cx="34" cy="12.5" r="3" fill="#ffffff" class="cell_$abc$28296$auto$blifparse.cc:381:parse_blif$28307"/>
    <g s:x="3" s:y="5" s:pid="A"/>
    <g s:x="3" s:y="20" s:pid="B"/>
    <g s:x="36" s:y="12.5" s:pid="Y"/>
  </g>
  <g s:type="reduce_nor" transform="translate(901.3333333333334,141.5)" s:width="33" s:height="25" id="cell_$abc$28296$auto$blifparse.cc:381:parse_blif$28308">
    <s:alias val="$nor"/>
    <s:alias val="$reduce_nor"/>
    <s:alias val="$_NOR_"/>
    <s:alias val="$_ORNOT_"/>
    <s:alias val="NOR"/>
    <path d="M0,25 L0,25 L15,25 A15 12.5 0 0 0 15,0 L0,0 A30 25 0 0 1 0,25 Z" fill="#ffffff" class="cell_$abc$28296$auto$blifparse.cc:381:parse_blif$28308"/>
    <circle cx="34" cy="12.5" r="3" fill="#ffffff" class="cell_$abc$28296$auto$blifparse.cc:381:parse_blif$28308"/>
    <g s:x="3" s:y="5" s:pid="A"/>
    <g s:x="3" s:y="20" s:pid="B"/>
    <g s:x="36" s:y="12.5" s:pid="Y"/>
  </g>
  <g s:type="not" transform="translate(1273,144)" s:width="30" s:height="20" id="cell_$abc$28296$auto$blifparse.cc:381:parse_blif$28309">
    <s:alias val="$_NOT_"/>
    <s:alias val="$not"/>
    <s:alias val="$logic_not"/>
    <s:alias val="NOT"/>
    <path d="M0,0 L0,20 L20,10 Z" fill="#ffffff" class="cell_$abc$28296$auto$blifparse.cc:381:parse_blif$28309"/>
    <circle cx="23" cy="10" r="3" fill="#ffffff" class="cell_$abc$28296$auto$blifparse.cc:381:parse_blif$28309"/>
    <g s:x="0" s:y="10" s:pid="A"/>
    <g s:x="25" s:y="10" s:pid="Y"/>
  </g>
  <g s:type="nand" transform="translate(1232.3333333333333,654)" s:width="30" s:height="25" id="cell_$abc$28296$auto$blifparse.cc:381:parse_blif$28310">
    <s:alias val="$nand"/>
    <s:alias val="$logic_nand"/>
    <s:alias val="$_NAND_"/>
    <s:alias val="$_ANDNOT_"/>
    <s:alias val="NAND"/>
    <path d="M0,0 L0,25 L15,25 A15 12.5 0 0 0 15,0 Z" fill="#ffffff" class="cell_$abc$28296$auto$blifparse.cc:381:parse_blif$28310"/>
    <circle cx="34" cy="12.5" r="3" fill="#ffffff" class="cell_$abc$28296$auto$blifparse.cc:381:parse_blif$28310"/>
    <g s:x="0" s:y="5" s:pid="A"/>
    <g s:x="0" s:y="20" s:pid="B"/>
    <g s:x="36" s:y="12.5" s:pid="Y"/>
  </g>
  <g s:type="not" transform="translate(1497,656.5)" s:width="30" s:height="20" id="cell_$abc$28296$auto$blifparse.cc:381:parse_blif$28311">
    <s:alias val="$_NOT_"/>
    <s:alias val="$not"/>
    <s:alias val="$logic_not"/>
    <s:alias val="NOT"/>
    <path d="M0,0 L0,20 L20,10 Z" fill="#ffffff" class="cell_$abc$28296$auto$blifparse.cc:381:parse_blif$28311"/>
    <circle cx="23" cy="10" r="3" fill="#ffffff" class="cell_$abc$28296$auto$blifparse.cc:381:parse_blif$28311"/>
    <g s:x="0" s:y="10" s:pid="A"/>
    <g s:x="25" s:y="10" s:pid="Y"/>
  </g>
  <g s:type="reduce_nor" transform="translate(1499,711.5)" s:width="33" s:height="25" id="cell_$abc$28296$auto$blifparse.cc:381:parse_blif$28312">
    <s:alias val="$nor"/>
    <s:alias val="$reduce_nor"/>
    <s:alias val="$_NOR_"/>
    <s:alias val="$_ORNOT_"/>
    <s:alias val="NOR"/>
    <path d="M0,25 L0,25 L15,25 A15 12.5 0 0 0 15,0 L0,0 A30 25 0 0 1 0,25 Z" fill="#ffffff" class="cell_$abc$28296$auto$blifparse.cc:381:parse_blif$28312"/>
    <circle cx="34" cy="12.5" r="3" fill="#ffffff" class="cell_$abc$28296$auto$blifparse.cc:381:parse_blif$28312"/>
    <g s:x="3" s:y="5" s:pid="A"/>
    <g s:x="3" s:y="20" s:pid="B"/>
    <g s:x="36" s:y="12.5" s:pid="Y"/>
  </g>
  <g s:type="nand" transform="translate(1232.3333333333333,779)" s:width="30" s:height="25" id="cell_$abc$28296$auto$blifparse.cc:381:parse_blif$28313">
    <s:alias val="$nand"/>
    <s:alias val="$logic_nand"/>
    <s:alias val="$_NAND_"/>
    <s:alias val="$_ANDNOT_"/>
    <s:alias val="NAND"/>
    <path d="M0,0 L0,25 L15,25 A15 12.5 0 0 0 15,0 Z" fill="#ffffff" class="cell_$abc$28296$auto$blifparse.cc:381:parse_blif$28313"/>
    <circle cx="34" cy="12.5" r="3" fill="#ffffff" class="cell_$abc$28296$auto$blifparse.cc:381:parse_blif$28313"/>
    <g s:x="0" s:y="5" s:pid="A"/>
    <g s:x="0" s:y="20" s:pid="B"/>
    <g s:x="36" s:y="12.5" s:pid="Y"/>
  </g>
  <g s:type="not" transform="translate(1497,781.5)" s:width="30" s:height="20" id="cell_$abc$28296$auto$blifparse.cc:381:parse_blif$28314">
    <s:alias val="$_NOT_"/>
    <s:alias val="$not"/>
    <s:alias val="$logic_not"/>
    <s:alias val="NOT"/>
    <path d="M0,0 L0,20 L20,10 Z" fill="#ffffff" class="cell_$abc$28296$auto$blifparse.cc:381:parse_blif$28314"/>
    <circle cx="23" cy="10" r="3" fill="#ffffff" class="cell_$abc$28296$auto$blifparse.cc:381:parse_blif$28314"/>
    <g s:x="0" s:y="10" s:pid="A"/>
    <g s:x="25" s:y="10" s:pid="Y"/>
  </g>
  <g s:type="reduce_nor" transform="translate(1808,794)" s:width="33" s:height="25" id="cell_$abc$28296$auto$blifparse.cc:381:parse_blif$28315">
    <s:alias val="$nor"/>
    <s:alias val="$reduce_nor"/>
    <s:alias val="$_NOR_"/>
    <s:alias val="$_ORNOT_"/>
    <s:alias val="NOR"/>
    <path d="M0,25 L0,25 L15,25 A15 12.5 0 0 0 15,0 L0,0 A30 25 0 0 1 0,25 Z" fill="#ffffff" class="cell_$abc$28296$auto$blifparse.cc:381:parse_blif$28315"/>
    <circle cx="34" cy="12.5" r="3" fill="#ffffff" class="cell_$abc$28296$auto$blifparse.cc:381:parse_blif$28315"/>
    <g s:x="3" s:y="5" s:pid="A"/>
    <g s:x="3" s:y="20" s:pid="B"/>
    <g s:x="36" s:y="12.5" s:pid="Y"/>
  </g>
  <g s:type="generic" transform="translate(496,151)" s:width="30" s:height="40" id="cell_$auto$simplemap.cc:527:simplemap_adff_sdff$1275">
    <text x="15" y="-4" class="nodelabel cell_$auto$simplemap.cc:527:simplemap_adff_sdff$1275" s:attribute="ref">DFFSR</text>
    <rect width="30" height="80" s:generic="body" fill="#E6E6FF" rx="0" class="cell_$auto$simplemap.cc:527:simplemap_adff_sdff$1275"/>
    <g transform="translate(0,10)" s:x="0" s:y="10" s:pid="in0" id="port_$auto$simplemap.cc:527:simplemap_adff_sdff$1275~C">
      <text x="-3" y="-4" class="inputPortLabel cell_$auto$simplemap.cc:527:simplemap_adff_sdff$1275">C</text>
    </g>
    <g transform="translate(0,30)" s:x="0" s:y="10" s:pid="in0" id="port_$auto$simplemap.cc:527:simplemap_adff_sdff$1275~D">
      <text x="-3" y="-4" class="inputPortLabel cell_$auto$simplemap.cc:527:simplemap_adff_sdff$1275">D</text>
    </g>
    <g transform="translate(0,50)" s:x="0" s:y="10" s:pid="in0" id="port_$auto$simplemap.cc:527:simplemap_adff_sdff$1275~R">
      <text x="-3" y="-4" class="inputPortLabel cell_$auto$simplemap.cc:527:simplemap_adff_sdff$1275">R</text>
    </g>
    <g transform="translate(0,70)" s:x="0" s:y="10" s:pid="in0" id="port_$auto$simplemap.cc:527:simplemap_adff_sdff$1275~S">
      <text x="-3" y="-4" class="inputPortLabel cell_$auto$simplemap.cc:527:simplemap_adff_sdff$1275">S</text>
    </g>
    <g transform="translate(30,10)" s:x="30" s:y="10" s:pid="out0" id="port_$auto$simplemap.cc:527:simplemap_adff_sdff$1275~Q">
      <text x="5" y="-4" style="fill:#000; stroke:none" class="cell_$auto$simplemap.cc:527:simplemap_adff_sdff$1275">Q</text>
    </g>
  </g>
  <g s:type="generic" transform="translate(1151,296)" s:width="30" s:height="40" id="cell_$auto$simplemap.cc:527:simplemap_adff_sdff$1276">
    <text x="15" y="-4" class="nodelabel cell_$auto$simplemap.cc:527:simplemap_adff_sdff$1276" s:attribute="ref">DFFSR</text>
    <rect width="30" height="80" s:generic="body" fill="#E6E6FF" rx="0" class="cell_$auto$simplemap.cc:527:simplemap_adff_sdff$1276"/>
    <g transform="translate(0,10)" s:x="0" s:y="10" s:pid="in0" id="port_$auto$simplemap.cc:527:simplemap_adff_sdff$1276~C">
      <text x="-3" y="-4" class="inputPortLabel cell_$auto$simplemap.cc:527:simplemap_adff_sdff$1276">C</text>
    </g>
    <g transform="translate(0,30)" s:x="0" s:y="10" s:pid="in0" id="port_$auto$simplemap.cc:527:simplemap_adff_sdff$1276~D">
      <text x="-3" y="-4" class="inputPortLabel cell_$auto$simplemap.cc:527:simplemap_adff_sdff$1276">D</text>
    </g>
    <g transform="translate(0,50)" s:x="0" s:y="10" s:pid="in0" id="port_$auto$simplemap.cc:527:simplemap_adff_sdff$1276~R">
      <text x="-3" y="-4" class="inputPortLabel cell_$auto$simplemap.cc:527:simplemap_adff_sdff$1276">R</text>
    </g>
    <g transform="translate(0,70)" s:x="0" s:y="10" s:pid="in0" id="port_$auto$simplemap.cc:527:simplemap_adff_sdff$1276~S">
      <text x="-3" y="-4" class="inputPortLabel cell_$auto$simplemap.cc:527:simplemap_adff_sdff$1276">S</text>
    </g>
    <g transform="translate(30,10)" s:x="30" s:y="10" s:pid="out0" id="port_$auto$simplemap.cc:527:simplemap_adff_sdff$1276~Q">
      <text x="5" y="-4" style="fill:#000; stroke:none" class="cell_$auto$simplemap.cc:527:simplemap_adff_sdff$1276">Q</text>
    </g>
  </g>
  <g s:type="generic" transform="translate(821,721)" s:width="30" s:height="40" id="cell_$auto$simplemap.cc:527:simplemap_adff_sdff$1277">
    <text x="15" y="-4" class="nodelabel cell_$auto$simplemap.cc:527:simplemap_adff_sdff$1277" s:attribute="ref">DFFSR</text>
    <rect width="30" height="80" s:generic="body" fill="#E6E6FF" rx="0" class="cell_$auto$simplemap.cc:527:simplemap_adff_sdff$1277"/>
    <g transform="translate(0,10)" s:x="0" s:y="10" s:pid="in0" id="port_$auto$simplemap.cc:527:simplemap_adff_sdff$1277~C">
      <text x="-3" y="-4" class="inputPortLabel cell_$auto$simplemap.cc:527:simplemap_adff_sdff$1277">C</text>
    </g>
    <g transform="translate(0,30)" s:x="0" s:y="10" s:pid="in0" id="port_$auto$simplemap.cc:527:simplemap_adff_sdff$1277~D">
      <text x="-3" y="-4" class="inputPortLabel cell_$auto$simplemap.cc:527:simplemap_adff_sdff$1277">D</text>
    </g>
    <g transform="translate(0,50)" s:x="0" s:y="10" s:pid="in0" id="port_$auto$simplemap.cc:527:simplemap_adff_sdff$1277~R">
      <text x="-3" y="-4" class="inputPortLabel cell_$auto$simplemap.cc:527:simplemap_adff_sdff$1277">R</text>
    </g>
    <g transform="translate(0,70)" s:x="0" s:y="10" s:pid="in0" id="port_$auto$simplemap.cc:527:simplemap_adff_sdff$1277~S">
      <text x="-3" y="-4" class="inputPortLabel cell_$auto$simplemap.cc:527:simplemap_adff_sdff$1277">S</text>
    </g>
    <g transform="translate(30,10)" s:x="30" s:y="10" s:pid="out0" id="port_$auto$simplemap.cc:527:simplemap_adff_sdff$1277~Q">
      <text x="5" y="-4" style="fill:#000; stroke:none" class="cell_$auto$simplemap.cc:527:simplemap_adff_sdff$1277">Q</text>
    </g>
  </g>
  <g s:type="generic" transform="translate(100,401.5)" s:width="30" s:height="40" id="cell_$auto$simplemap.cc:527:simplemap_adff_sdff$1278">
    <text x="15" y="-4" class="nodelabel cell_$auto$simplemap.cc:527:simplemap_adff_sdff$1278" s:attribute="ref">DFFSR</text>
    <rect width="30" height="80" s:generic="body" fill="#E6E6FF" rx="0" class="cell_$auto$simplemap.cc:527:simplemap_adff_sdff$1278"/>
    <g transform="translate(0,10)" s:x="0" s:y="10" s:pid="in0" id="port_$auto$simplemap.cc:527:simplemap_adff_sdff$1278~C">
      <text x="-3" y="-4" class="inputPortLabel cell_$auto$simplemap.cc:527:simplemap_adff_sdff$1278">C</text>
    </g>
    <g transform="translate(0,30)" s:x="0" s:y="10" s:pid="in0" id="port_$auto$simplemap.cc:527:simplemap_adff_sdff$1278~D">
      <text x="-3" y="-4" class="inputPortLabel cell_$auto$simplemap.cc:527:simplemap_adff_sdff$1278">D</text>
    </g>
    <g transform="translate(0,50)" s:x="0" s:y="10" s:pid="in0" id="port_$auto$simplemap.cc:527:simplemap_adff_sdff$1278~R">
      <text x="-3" y="-4" class="inputPortLabel cell_$auto$simplemap.cc:527:simplemap_adff_sdff$1278">R</text>
    </g>
    <g transform="translate(0,70)" s:x="0" s:y="10" s:pid="in0" id="port_$auto$simplemap.cc:527:simplemap_adff_sdff$1278~S">
      <text x="-3" y="-4" class="inputPortLabel cell_$auto$simplemap.cc:527:simplemap_adff_sdff$1278">S</text>
    </g>
    <g transform="translate(30,10)" s:x="30" s:y="10" s:pid="out0" id="port_$auto$simplemap.cc:527:simplemap_adff_sdff$1278~Q">
      <text x="5" y="-4" style="fill:#000; stroke:none" class="cell_$auto$simplemap.cc:527:simplemap_adff_sdff$1278">Q</text>
    </g>
  </g>
  <g s:type="generic" transform="translate(1506,103.5)" s:width="30" s:height="40" id="cell_Counter">
    <text x="15" y="-4" class="nodelabel cell_Counter" s:attribute="ref">Counter</text>
    <rect width="30" height="60" s:generic="body" fill="#E6E6FF" rx="0" class="cell_Counter"/>
    <g transform="translate(0,10)" s:x="0" s:y="10" s:pid="in0" id="port_Counter~clk">
      <text x="-3" y="-4" class="inputPortLabel cell_Counter">clk</text>
    </g>
    <g transform="translate(0,30)" s:x="0" s:y="10" s:pid="in0" id="port_Counter~enable">
      <text x="-3" y="-4" class="inputPortLabel cell_Counter">enable</text>
    </g>
    <g transform="translate(0,50)" s:x="0" s:y="10" s:pid="in0" id="port_Counter~reset">
      <text x="-3" y="-4" class="inputPortLabel cell_Counter">reset</text>
    </g>
    <g transform="translate(30,10)" s:x="30" s:y="10" s:pid="out0" id="port_Counter~out">
      <text x="5" y="-4" style="fill:#000; stroke:none" class="cell_Counter">out</text>
    </g>
  </g>
  <g s:type="generic" transform="translate(1678,681)" s:width="30" s:height="40" id="cell_DataBuffer">
    <text x="15" y="-4" class="nodelabel cell_DataBuffer" s:attribute="ref">RegisterShifter</text>
    <rect width="30" height="120" s:generic="body" fill="#E6E6FF" rx="0" class="cell_DataBuffer"/>
    <g transform="translate(0,10)" s:x="0" s:y="10" s:pid="in0" id="port_DataBuffer~clk">
      <text x="-3" y="-4" class="inputPortLabel cell_DataBuffer">clk</text>
    </g>
    <g transform="translate(0,30)" s:x="0" s:y="10" s:pid="in0" id="port_DataBuffer~data_in">
      <text x="-3" y="-4" class="inputPortLabel cell_DataBuffer">data_in</text>
    </g>
    <g transform="translate(0,50)" s:x="0" s:y="10" s:pid="in0" id="port_DataBuffer~reset">
      <text x="-3" y="-4" class="inputPortLabel cell_DataBuffer">reset</text>
    </g>
    <g transform="translate(0,70)" s:x="0" s:y="10" s:pid="in0" id="port_DataBuffer~set">
      <text x="-3" y="-4" class="inputPortLabel cell_DataBuffer">set</text>
    </g>
    <g transform="translate(0,90)" s:x="0" s:y="10" s:pid="in0" id="port_DataBuffer~set_select">
      <text x="-3" y="-4" class="inputPortLabel cell_DataBuffer">set_select</text>
    </g>
    <g transform="translate(0,110)" s:x="0" s:y="10" s:pid="in0" id="port_DataBuffer~shift">
      <text x="-3" y="-4" class="inputPortLabel cell_DataBuffer">shift</text>
    </g>
    <g transform="translate(30,10)" s:x="30" s:y="10" s:pid="out0" id="port_DataBuffer~data_out">
      <text x="5" y="-4" style="fill:#000; stroke:none" class="cell_DataBuffer">data_out</text>
    </g>
  </g>
  <g s:type="tribuf" transform="translate(1818.5,676.5)" s:width="15" s:height="30" id="cell_Tristate">
    <s:alias val="$tribuf"/>
    <s:alias val="$_TRIBUF_"/>
    <s:alias val="tribuf-bus"/>
    <s:alias val="$tribuf-bus"/>
    <s:alias val="$_TRIBUF_-bus"/>
    <s:alias val="Tristate"/>
    <s:alias val="TristateBus"/>
    <path d="M0,0 L25,15 L0,30 Z" class="cell_Tristate"/>
    <g s:x="0" s:y="15" s:pid="A"/>
    <g s:x="11" s:y="6" s:pid="EN"/>
    <g s:x="25" s:y="15" s:pid="Y"/>
  </g>
  <g s:type="inputExt" transform="translate(821,265)" s:width="30" s:height="20" id="cell_SET_BUFFER">
    <text x="15" y="-4" class="nodelabel cell_SET_BUFFER" s:attribute="ref">SET_BUFFER</text>
    <s:alias val="$_inputExt_"/>
    <path d="M0,0 L0,20 L15,20 L30,10 L15,0 Z" fill="#ffffff" class="cell_SET_BUFFER"/>
    <g s:x="28" s:y="10" s:pid="Y"/>
  </g>
  <g s:type="inputExt" transform="translate(12,336.5)" s:width="30" s:height="20" id="cell_RESET">
    <text x="15" y="-4" class="nodelabel cell_RESET" s:attribute="ref">RESET</text>
    <s:alias val="$_inputExt_"/>
    <path d="M0,0 L0,20 L15,20 L30,10 L15,0 Z" fill="#ffffff" class="cell_RESET"/>
    <g s:x="28" s:y="10" s:pid="Y"/>
  </g>
  <g s:type="inputExt" transform="translate(12,527)" s:width="30" s:height="20" id="cell_CLK">
    <text x="15" y="-4" class="nodelabel cell_CLK" s:attribute="ref">CLK</text>
    <s:alias val="$_inputExt_"/>
    <path d="M0,0 L0,20 L15,20 L30,10 L15,0 Z" fill="#ffffff" class="cell_CLK"/>
    <g s:x="28" s:y="10" s:pid="Y"/>
  </g>
  <g s:type="inputExt" transform="translate(1506,558)" s:width="30" s:height="20" id="cell_DATA_IN">
    <text x="15" y="-4" class="nodelabel cell_DATA_IN" s:attribute="ref">DATA_IN</text>
    <s:alias val="$_inputExt_"/>
    <path d="M0,0 L0,20 L15,20 L30,10 L15,0 Z" fill="#ffffff" class="cell_DATA_IN"/>
    <g s:x="28" s:y="10" s:pid="Y"/>
  </g>
  <g s:type="outputExt" transform="translate(1879,796.5)" s:width="30" s:height="20" id="cell_OUTPUT_CLK">
    <text x="15" y="-4" class="nodelabel cell_OUTPUT_CLK" s:attribute="ref">OUTPUT_CLK</text>
    <s:alias val="$_outputExt_"/>
    <path d="M30,0 L30,20 L15,20 L0,10 L15,0 Z" fill="#ffffff" class="cell_OUTPUT_CLK"/>
    <g s:x="0" s:y="10" s:pid="A"/>
  </g>
  <g s:type="outputExt" transform="translate(1879,681.5)" s:width="30" s:height="20" id="cell_DATA_OUT">
    <text x="15" y="-4" class="nodelabel cell_DATA_OUT" s:attribute="ref">DATA_OUT</text>
    <s:alias val="$_outputExt_"/>
    <path d="M30,0 L30,20 L15,20 L0,10 L15,0 Z" fill="#ffffff" class="cell_DATA_OUT"/>
    <g s:x="0" s:y="10" s:pid="A"/>
  </g>
  <g s:type="constant" transform="translate(12,462)" s:width="30" s:height="20" id="cell_0">
    <text x="15" y="-4" class="nodelabel cell_0" s:attribute="ref">0</text>
    <s:alias val="$_constant_"/>
    <rect width="30" height="20" fill="#ffffff" class="cell_0"/>
    <g s:x="30" s:y="10" s:pid="Y"/>
  </g>
  <g s:type="split" transform="translate(1690.6666666666667,93.5)" s:width="5" s:height="40" id="cell_$split$,265,272,">
    <rect width="5" height="40" class="splitjoinBody" s:generic="body"/>
    <s:alias val="$_split_"/>
    <g s:x="-1" s:y="20" s:pid="in"/>
    <g transform="translate(5,10)" s:x="5" s:y="10" s:pid="out0">
      <text x="5" y="-4">0</text>
    </g>
    <g transform="translate(5,30)" s:x="5" s:y="10" s:pid="out0">
      <text x="5" y="-4">1</text>
    </g>
  </g>
  <line x1="1182" x2="1443" y1="306.5" y2="306.5" class="net_262"/>
  <line x1="1443" x2="1443" y1="306.5" y2="410" class="net_262"/>
  <circle cx="1443" cy="306.5" r="2" style="fill:#000" class="net_262"/>
  <circle cx="1443" cy="410" r="2" style="fill:#000" class="net_262"/>
  <line x1="1443" x2="1672" y1="410" y2="410" class="net_262"/>
  <line x1="1182" x2="1788" y1="306.5" y2="306.5" class="net_262"/>
  <line x1="1788" x2="1788" y1="306.5" y2="470" class="net_262"/>
  <line x1="1788" x2="1811" y1="470" y2="470" class="net_262"/>
  <line x1="1182" x2="1443" y1="306.5" y2="306.5" class="net_262"/>
  <line x1="1443" x2="1443" y1="306.5" y2="39" class="net_262"/>
  <line x1="1443" x2="1811" y1="39" y2="39" class="net_262"/>
  <line x1="1182" x2="1443" y1="306.5" y2="306.5" class="net_262"/>
  <line x1="1443" x2="1443" y1="306.5" y2="134" class="net_262"/>
  <circle cx="1443" cy="134" r="2" style="fill:#000" class="net_262"/>
  <line x1="1443" x2="1505" y1="134" y2="134" class="net_262"/>
  <line x1="1182" x2="1443" y1="306.5" y2="306.5" class="net_262"/>
  <line x1="1443" x2="1443" y1="306.5" y2="526" class="net_262"/>
  <line x1="1443" x2="1829.5" y1="526" y2="526" class="net_262"/>
  <line x1="1829.5" x2="1829.5" y1="526" y2="682.5" class="net_262"/>
  <line x1="849" x2="1113" y1="275" y2="275" class="net_2"/>
  <line x1="1113" x2="1113" y1="275" y2="609" class="net_2"/>
  <circle cx="1113" cy="275" r="2" style="fill:#000" class="net_2"/>
  <line x1="1113" x2="1273" y1="609" y2="609" class="net_2"/>
  <line x1="849" x2="1798" y1="275" y2="275" class="net_2"/>
  <line x1="1798" x2="1798" y1="275" y2="425" class="net_2"/>
  <line x1="1798" x2="1808" y1="425" y2="425" class="net_2"/>
  <line x1="849" x2="1113" y1="275" y2="275" class="net_2"/>
  <line x1="1113" x2="1113" y1="275" y2="54" class="net_2"/>
  <line x1="1113" x2="1811" y1="54" y2="54" class="net_2"/>
  <line x1="1696.6666666666667" x2="1811" y1="104" y2="104" class="net_265"/>
  <line x1="1697" x2="1808" y1="410" y2="410" class="net_263"/>
  <line x1="1697" x2="1768" y1="410" y2="410" class="net_263"/>
  <line x1="1768" x2="1768" y1="410" y2="799" class="net_263"/>
  <circle cx="1768" cy="410" r="2" style="fill:#000" class="net_263"/>
  <line x1="1768" x2="1811" y1="799" y2="799" class="net_263"/>
  <line x1="131" x2="402" y1="412" y2="412" class="net_268"/>
  <line x1="402" x2="402" y1="412" y2="244" class="net_268"/>
  <line x1="402" x2="1854" y1="244" y2="244" class="net_268"/>
  <line x1="1854" x2="1854" y1="244" y2="402.5" class="net_268"/>
  <circle cx="402" cy="412" r="2" style="fill:#000" class="net_268"/>
  <circle cx="402" cy="244" r="2" style="fill:#000" class="net_268"/>
  <line x1="1854" x2="1882" y1="402.5" y2="402.5" class="net_268"/>
  <line x1="131" x2="402" y1="412" y2="412" class="net_268"/>
  <line x1="402" x2="402" y1="412" y2="171.5" class="net_268"/>
  <line x1="402" x2="420" y1="171.5" y2="171.5" class="net_268"/>
  <line x1="131" x2="402" y1="412" y2="412" class="net_268"/>
  <line x1="402" x2="402" y1="412" y2="659" class="net_268"/>
  <line x1="402" x2="1232.3333333333333" y1="659" y2="659" class="net_268"/>
  <line x1="1844" x2="1882" y1="417.5" y2="417.5" class="net_267"/>
  <line x1="852" x2="1133" y1="731.5" y2="731.5" class="net_270"/>
  <line x1="1133" x2="1133" y1="731.5" y2="389" class="net_270"/>
  <line x1="1133" x2="1778" y1="389" y2="389" class="net_270"/>
  <line x1="1778" x2="1778" y1="389" y2="485" class="net_270"/>
  <circle cx="1133" cy="731.5" r="2" style="fill:#000" class="net_270"/>
  <line x1="1778" x2="1811" y1="485" y2="485" class="net_270"/>
  <line x1="852" x2="1502" y1="731.5" y2="731.5" class="net_270"/>
  <line x1="852" x2="1133" y1="731.5" y2="731.5" class="net_270"/>
  <line x1="1133" x2="1133" y1="731.5" y2="784" class="net_270"/>
  <line x1="1133" x2="1232.3333333333333" y1="784" y2="784" class="net_270"/>
  <line x1="1836" x2="1854" y1="104" y2="104" class="net_266"/>
  <line x1="1854" x2="1854" y1="104" y2="109" class="net_266"/>
  <line x1="1854" x2="1879" y1="109" y2="109" class="net_266"/>
  <line x1="1696.6666666666667" x2="1879" y1="124" y2="124" class="net_272"/>
  <line x1="1915" x2="1979" y1="116.5" y2="116.5" class="net_273"/>
  <line x1="1979" x2="1979" y1="116.5" y2="12" class="net_273"/>
  <line x1="1979" x2="392" y1="12" y2="12" class="net_273"/>
  <line x1="392" x2="392" y1="12" y2="186.5" class="net_273"/>
  <line x1="392" x2="420" y1="186.5" y2="186.5" class="net_273"/>
  <line x1="1844" x2="1854" y1="477.5" y2="477.5" class="net_271"/>
  <line x1="1854" x2="1854" y1="477.5" y2="485" class="net_271"/>
  <line x1="1854" x2="1882" y1="485" y2="485" class="net_271"/>
  <line x1="453" x2="463" y1="179" y2="179" class="net_274"/>
  <line x1="463" x2="463" y1="179" y2="500" class="net_274"/>
  <circle cx="463" cy="179" r="2" style="fill:#000" class="net_274"/>
  <line x1="463" x2="1882" y1="500" y2="500" class="net_274"/>
  <line x1="453" x2="463" y1="179" y2="179" class="net_274"/>
  <line x1="463" x2="463" y1="179" y2="23" class="net_274"/>
  <line x1="463" x2="1854" y1="23" y2="23" class="net_274"/>
  <line x1="1854" x2="1854" y1="23" y2="31.5" class="net_274"/>
  <line x1="1854" x2="1882" y1="31.5" y2="31.5" class="net_274"/>
  <line x1="453" x2="463" y1="179" y2="179" class="net_274"/>
  <line x1="463" x2="463" y1="179" y2="181.5" class="net_274"/>
  <circle cx="463" cy="181.5" r="2" style="fill:#000" class="net_274"/>
  <line x1="463" x2="495" y1="181.5" y2="181.5" class="net_274"/>
  <line x1="1844" x2="1882" y1="46.5" y2="46.5" class="net_276"/>
  <line x1="40" x2="82" y1="346.5" y2="346.5" class="net_3"/>
  <line x1="82" x2="82" y1="346.5" y2="130" class="net_3"/>
  <line x1="82" x2="788" y1="130" y2="130" class="net_3"/>
  <line x1="788" x2="788" y1="130" y2="146.5" class="net_3"/>
  <circle cx="82" cy="346.5" r="2" style="fill:#000" class="net_3"/>
  <line x1="788" x2="904.3333333333334" y1="146.5" y2="146.5" class="net_3"/>
  <line x1="40" x2="82" y1="346.5" y2="346.5" class="net_3"/>
  <line x1="82" x2="82" y1="346.5" y2="201.5" class="net_3"/>
  <circle cx="82" cy="201.5" r="2" style="fill:#000" class="net_3"/>
  <line x1="82" x2="495" y1="201.5" y2="201.5" class="net_3"/>
  <line x1="40" x2="1150" y1="346.5" y2="346.5" class="net_3"/>
  <line x1="40" x2="82" y1="346.5" y2="346.5" class="net_3"/>
  <line x1="82" x2="82" y1="346.5" y2="771.5" class="net_3"/>
  <line x1="82" x2="820" y1="771.5" y2="771.5" class="net_3"/>
  <line x1="40" x2="82" y1="346.5" y2="346.5" class="net_3"/>
  <line x1="82" x2="82" y1="346.5" y2="452" class="net_3"/>
  <circle cx="82" cy="452" r="2" style="fill:#000" class="net_3"/>
  <line x1="82" x2="99" y1="452" y2="452" class="net_3"/>
  <line x1="40" x2="82" y1="346.5" y2="346.5" class="net_3"/>
  <line x1="82" x2="82" y1="346.5" y2="588" class="net_3"/>
  <line x1="82" x2="1586" y1="588" y2="588" class="net_3"/>
  <line x1="1586" x2="1586" y1="588" y2="731.5" class="net_3"/>
  <circle cx="82" cy="588" r="2" style="fill:#000" class="net_3"/>
  <line x1="1586" x2="1677" y1="731.5" y2="731.5" class="net_3"/>
  <line x1="527" x2="904.3333333333334" y1="161.5" y2="161.5" class="net_278"/>
  <line x1="937.3333333333334" x2="1273" y1="154" y2="154" class="net_279"/>
  <line x1="40" x2="72" y1="537" y2="537" class="net_4"/>
  <line x1="72" x2="72" y1="537" y2="674" class="net_4"/>
  <circle cx="72" cy="537" r="2" style="fill:#000" class="net_4"/>
  <circle cx="72" cy="674" r="2" style="fill:#000" class="net_4"/>
  <line x1="72" x2="1232.3333333333333" y1="674" y2="674" class="net_4"/>
  <line x1="40" x2="72" y1="537" y2="537" class="net_4"/>
  <line x1="72" x2="72" y1="537" y2="814" class="net_4"/>
  <line x1="72" x2="1113" y1="814" y2="814" class="net_4"/>
  <line x1="1113" x2="1113" y1="814" y2="799" class="net_4"/>
  <circle cx="1113" cy="814" r="2" style="fill:#000" class="net_4"/>
  <line x1="1113" x2="1232.3333333333333" y1="799" y2="799" class="net_4"/>
  <line x1="40" x2="72" y1="537" y2="537" class="net_4"/>
  <line x1="72" x2="72" y1="537" y2="814" class="net_4"/>
  <line x1="72" x2="1811" y1="814" y2="814" class="net_4"/>
  <line x1="40" x2="72" y1="537" y2="537" class="net_4"/>
  <line x1="72" x2="72" y1="537" y2="155.5" class="net_4"/>
  <line x1="72" x2="473" y1="155.5" y2="155.5" class="net_4"/>
  <line x1="473" x2="473" y1="155.5" y2="161.5" class="net_4"/>
  <circle cx="72" cy="155.5" r="2" style="fill:#000" class="net_4"/>
  <line x1="473" x2="496" y1="161.5" y2="161.5" class="net_4"/>
  <line x1="40" x2="72" y1="537" y2="537" class="net_4"/>
  <line x1="72" x2="72" y1="537" y2="306.5" class="net_4"/>
  <circle cx="72" cy="306.5" r="2" style="fill:#000" class="net_4"/>
  <line x1="72" x2="1151" y1="306.5" y2="306.5" class="net_4"/>
  <line x1="40" x2="72" y1="537" y2="537" class="net_4"/>
  <line x1="72" x2="72" y1="537" y2="674" class="net_4"/>
  <line x1="72" x2="788" y1="674" y2="674" class="net_4"/>
  <line x1="788" x2="788" y1="674" y2="731.5" class="net_4"/>
  <circle cx="788" cy="674" r="2" style="fill:#000" class="net_4"/>
  <line x1="788" x2="821" y1="731.5" y2="731.5" class="net_4"/>
  <line x1="40" x2="72" y1="537" y2="537" class="net_4"/>
  <line x1="72" x2="72" y1="537" y2="412" class="net_4"/>
  <circle cx="72" cy="412" r="2" style="fill:#000" class="net_4"/>
  <line x1="72" x2="100" y1="412" y2="412" class="net_4"/>
  <line x1="40" x2="72" y1="537" y2="537" class="net_4"/>
  <line x1="72" x2="72" y1="537" y2="114" class="net_4"/>
  <line x1="72" x2="1506" y1="114" y2="114" class="net_4"/>
  <line x1="40" x2="1606" y1="537" y2="537" class="net_4"/>
  <line x1="1606" x2="1606" y1="537" y2="691.5" class="net_4"/>
  <line x1="1606" x2="1678" y1="691.5" y2="691.5" class="net_4"/>
  <line x1="1268.3333333333333" x2="1497" y1="666.5" y2="666.5" class="net_281"/>
  <line x1="1298" x2="1443" y1="609" y2="609" class="net_264"/>
  <line x1="1443" x2="1443" y1="609" y2="716.5" class="net_264"/>
  <line x1="1443" x2="1502" y1="716.5" y2="716.5" class="net_264"/>
  <line x1="1268.3333333333333" x2="1497" y1="791.5" y2="791.5" class="net_284"/>
  <line x1="42" x2="52" y1="472" y2="472" class="net_350"/>
  <line x1="52" x2="52" y1="472" y2="221.5" class="net_350"/>
  <circle cx="52" cy="472" r="2" style="fill:#000" class="net_350"/>
  <line x1="52" x2="495" y1="221.5" y2="221.5" class="net_350"/>
  <line x1="42" x2="52" y1="472" y2="472" class="net_350"/>
  <line x1="52" x2="52" y1="472" y2="366.5" class="net_350"/>
  <circle cx="52" cy="366.5" r="2" style="fill:#000" class="net_350"/>
  <line x1="52" x2="1150" y1="366.5" y2="366.5" class="net_350"/>
  <line x1="42" x2="52" y1="472" y2="472" class="net_350"/>
  <line x1="52" x2="52" y1="472" y2="791.5" class="net_350"/>
  <line x1="52" x2="820" y1="791.5" y2="791.5" class="net_350"/>
  <line x1="42" x2="99" y1="472" y2="472" class="net_350"/>
  <line x1="1915" x2="1969" y1="39" y2="39" class="net_277"/>
  <line x1="1969" x2="1969" y1="39" y2="515" class="net_277"/>
  <line x1="1969" x2="1123" y1="515" y2="515" class="net_277"/>
  <line x1="1123" x2="1123" y1="515" y2="326.5" class="net_277"/>
  <line x1="1123" x2="1150" y1="326.5" y2="326.5" class="net_277"/>
  <line x1="1915" x2="1949" y1="492.5" y2="492.5" class="net_275"/>
  <line x1="1949" x2="1949" y1="492.5" y2="829" class="net_275"/>
  <line x1="1949" x2="788" y1="829" y2="829" class="net_275"/>
  <line x1="788" x2="788" y1="829" y2="751.5" class="net_275"/>
  <line x1="788" x2="820" y1="751.5" y2="751.5" class="net_275"/>
  <line x1="1915" x2="1959" y1="410" y2="410" class="net_269"/>
  <line x1="1959" x2="1959" y1="410" y2="840" class="net_269"/>
  <line x1="1959" x2="62" y1="840" y2="840" class="net_269"/>
  <line x1="62" x2="62" y1="840" y2="432" class="net_269"/>
  <line x1="62" x2="99" y1="432" y2="432" class="net_269"/>
  <line x1="1298" x2="1505" y1="154" y2="154" class="net_280"/>
  <line x1="1534" x2="1596" y1="568" y2="568" class="net_5,6,7,8,9,10,11,12,13,14,15,16,17,18,19,20,21,22,23,24,25,26,27,28,29,30,31,32,33,34,35,36,37,38,39,40,41,42,43,44,45,46,47,48,49,50,51,52,53,54,55,56,57,58,59,60,61,62,63,64,65,66,67,68,69,70,71,72,73,74,75,76,77,78,79,80,81,82,83,84,85,86,87,88,89,90,91,92,93,94,95,96,97,98,99,100,101,102,103,104,105,106,107,108,109,110,111,112,113,114,115,116,117,118,119,120,121,122,123,124,125,126,127,128,129,130,131,132,133,134,135,136,137,138,139,140,141,142,143,144,145,146,147,148,149,150,151,152,153,154,155,156,157,158,159,160,161,162,163,164,165,166,167,168,169,170,171,172,173,174,175,176,177,178,179,180,181,182,183,184,185,186,187,188,189,190,191,192,193,194,195,196"/>
  <line x1="1596" x2="1596" y1="568" y2="711.5" class="net_5,6,7,8,9,10,11,12,13,14,15,16,17,18,19,20,21,22,23,24,25,26,27,28,29,30,31,32,33,34,35,36,37,38,39,40,41,42,43,44,45,46,47,48,49,50,51,52,53,54,55,56,57,58,59,60,61,62,63,64,65,66,67,68,69,70,71,72,73,74,75,76,77,78,79,80,81,82,83,84,85,86,87,88,89,90,91,92,93,94,95,96,97,98,99,100,101,102,103,104,105,106,107,108,109,110,111,112,113,114,115,116,117,118,119,120,121,122,123,124,125,126,127,128,129,130,131,132,133,134,135,136,137,138,139,140,141,142,143,144,145,146,147,148,149,150,151,152,153,154,155,156,157,158,159,160,161,162,163,164,165,166,167,168,169,170,171,172,173,174,175,176,177,178,179,180,181,182,183,184,185,186,187,188,189,190,191,192,193,194,195,196"/>
  <line x1="1596" x2="1677" y1="711.5" y2="711.5" class="net_5,6,7,8,9,10,11,12,13,14,15,16,17,18,19,20,21,22,23,24,25,26,27,28,29,30,31,32,33,34,35,36,37,38,39,40,41,42,43,44,45,46,47,48,49,50,51,52,53,54,55,56,57,58,59,60,61,62,63,64,65,66,67,68,69,70,71,72,73,74,75,76,77,78,79,80,81,82,83,84,85,86,87,88,89,90,91,92,93,94,95,96,97,98,99,100,101,102,103,104,105,106,107,108,109,110,111,112,113,114,115,116,117,118,119,120,121,122,123,124,125,126,127,128,129,130,131,132,133,134,135,136,137,138,139,140,141,142,143,144,145,146,147,148,149,150,151,152,153,154,155,156,157,158,159,160,161,162,163,164,165,166,167,168,169,170,171,172,173,174,175,176,177,178,179,180,181,182,183,184,185,186,187,188,189,190,191,192,193,194,195,196"/>
  <line x1="1522" x2="1576" y1="666.5" y2="666.5" class="net_282"/>
  <line x1="1576" x2="1576" y1="666.5" y2="751.5" class="net_282"/>
  <line x1="1576" x2="1677" y1="751.5" y2="751.5" class="net_282"/>
  <line x1="1535" x2="1566" y1="724" y2="724" class="net_283"/>
  <line x1="1566" x2="1566" y1="724" y2="771.5" class="net_283"/>
  <line x1="1566" x2="1677" y1="771.5" y2="771.5" class="net_283"/>
  <line x1="1522" x2="1677" y1="791.5" y2="791.5" class="net_285"/>
  <line x1="1709" x2="1818.5" y1="691.5" y2="691.5" class="net_286,287,288,289,290,291,292,293,294,295,296,297,298,299,300,301,302,303,304,305,306,307,308,309,310,311,312,313,314,315,316,317,318,319,320,321,322,323,324,325,326,327,328,329,330,331,332,333,334,335,336,337,338,339,340,341,342,343,344,345,346,347,348,349"/>
  <line x1="1844" x2="1879" y1="806.5" y2="806.5" class="net_197"/>
  <line x1="1843.5" x2="1879" y1="691.5" y2="691.5" class="net_198,199,200,201,202,203,204,205,206,207,208,209,210,211,212,213,214,215,216,217,218,219,220,221,222,223,224,225,226,227,228,229,230,231,232,233,234,235,236,237,238,239,240,241,242,243,244,245,246,247,248,249,250,251,252,253,254,255,256,257,258,259,260,261"/>
  <line x1="1537" x2="1689.6666666666667" y1="114" y2="114" class="net_265,272"/>
</svg>
