<svg xmlns="http://www.w3.org/2000/svg" xmlns:xlink="http://www.w3.org/1999/xlink" xmlns:s="https://github.com/nturley/netlistsvg" width="420" height="1333">
  <style>svg {
    stroke:#000;
    fill:none;
  }
  text {
    fill:#000;
    stroke:none;
    font-size:10px;
    font-weight: bold;
    font-family: "Courier New", monospace;
  }
  .nodelabel {
    text-anchor: middle;
  }
  .inputPortLabel {
    text-anchor: end;
  }
  .splitjoinBody {
    fill:#000;
  }</style>
  <g s:type="generic" transform="translate(167,22)" s:width="30" s:height="40" id="cell_genblk1[0].ps">
    <text x="15" y="-4" class="nodelabel cell_genblk1[0].ps" s:attribute="ref">PIXEL_SENSOR 1</text>
    <rect width="30" height="120" s:generic="body" class="cell_genblk1[0].ps"/>
    <g transform="translate(0,10)" s:x="0" s:y="10" s:pid="in0" id="port_genblk1[0].ps~COUNTER">
      <text x="-3" y="-4" class="inputPortLabel cell_genblk1[0].ps">COUNTER</text>
    </g>
    <g transform="translate(0,30)" s:x="0" s:y="10" s:pid="in0" id="port_genblk1[0].ps~ERASE">
      <text x="-3" y="-4" class="inputPortLabel cell_genblk1[0].ps">ERASE</text>
    </g>
    <g transform="translate(0,50)" s:x="0" s:y="10" s:pid="in0" id="port_genblk1[0].ps~EXPOSE">
      <text x="-3" y="-4" class="inputPortLabel cell_genblk1[0].ps">EXPOSE</text>
    </g>
    <g transform="translate(0,70)" s:x="0" s:y="10" s:pid="in0" id="port_genblk1[0].ps~RAMP">
      <text x="-3" y="-4" class="inputPortLabel cell_genblk1[0].ps">RAMP</text>
    </g>
    <g transform="translate(0,90)" s:x="0" s:y="10" s:pid="in0" id="port_genblk1[0].ps~READ">
      <text x="-3" y="-4" class="inputPortLabel cell_genblk1[0].ps">READ</text>
    </g>
    <g transform="translate(0,110)" s:x="0" s:y="10" s:pid="in0" id="port_genblk1[0].ps~VBN1">
      <text x="-3" y="-4" class="inputPortLabel cell_genblk1[0].ps">VBN1</text>
    </g>
    <g transform="translate(30,10)" s:x="30" s:y="10" s:pid="out0" id="port_genblk1[0].ps~DATA">
      <text x="5" y="-4" style="fill:#000; stroke:none" class="cell_genblk1[0].ps">DATA</text>
    </g>
  </g>
  <g s:type="generic" transform="translate(167,190)" s:width="30" s:height="40" id="cell_genblk1[1].ps">
    <text x="15" y="-4" class="nodelabel cell_genblk1[1].ps" s:attribute="ref">PIXEL_SENSOR 2</text>
    <rect width="30" height="120" s:generic="body" class="cell_genblk1[1].ps"/>
    <g transform="translate(0,10)" s:x="0" s:y="10" s:pid="in0" id="port_genblk1[1].ps~COUNTER">
      <text x="-3" y="-4" class="inputPortLabel cell_genblk1[1].ps">COUNTER</text>
    </g>
    <g transform="translate(0,30)" s:x="0" s:y="10" s:pid="in0" id="port_genblk1[1].ps~ERASE">
      <text x="-3" y="-4" class="inputPortLabel cell_genblk1[1].ps">ERASE</text>
    </g>
    <g transform="translate(0,50)" s:x="0" s:y="10" s:pid="in0" id="port_genblk1[1].ps~EXPOSE">
      <text x="-3" y="-4" class="inputPortLabel cell_genblk1[1].ps">EXPOSE</text>
    </g>
    <g transform="translate(0,70)" s:x="0" s:y="10" s:pid="in0" id="port_genblk1[1].ps~RAMP">
      <text x="-3" y="-4" class="inputPortLabel cell_genblk1[1].ps">RAMP</text>
    </g>
    <g transform="translate(0,90)" s:x="0" s:y="10" s:pid="in0" id="port_genblk1[1].ps~READ">
      <text x="-3" y="-4" class="inputPortLabel cell_genblk1[1].ps">READ</text>
    </g>
    <g transform="translate(0,110)" s:x="0" s:y="10" s:pid="in0" id="port_genblk1[1].ps~VBN1">
      <text x="-3" y="-4" class="inputPortLabel cell_genblk1[1].ps">VBN1</text>
    </g>
    <g transform="translate(30,10)" s:x="30" s:y="10" s:pid="out0" id="port_genblk1[1].ps~DATA">
      <text x="5" y="-4" style="fill:#000; stroke:none" class="cell_genblk1[1].ps">DATA</text>
    </g>
  </g>
  <g s:type="generic" transform="translate(167,358)" s:width="30" s:height="40" id="cell_genblk1[2].ps">
    <text x="15" y="-4" class="nodelabel cell_genblk1[2].ps" s:attribute="ref">PIXEL_SENSOR 3</text>
    <rect width="30" height="120" s:generic="body" class="cell_genblk1[2].ps"/>
    <g transform="translate(0,10)" s:x="0" s:y="10" s:pid="in0" id="port_genblk1[2].ps~COUNTER">
      <text x="-3" y="-4" class="inputPortLabel cell_genblk1[2].ps">COUNTER</text>
    </g>
    <g transform="translate(0,30)" s:x="0" s:y="10" s:pid="in0" id="port_genblk1[2].ps~ERASE">
      <text x="-3" y="-4" class="inputPortLabel cell_genblk1[2].ps">ERASE</text>
    </g>
    <g transform="translate(0,50)" s:x="0" s:y="10" s:pid="in0" id="port_genblk1[2].ps~EXPOSE">
      <text x="-3" y="-4" class="inputPortLabel cell_genblk1[2].ps">EXPOSE</text>
    </g>
    <g transform="translate(0,70)" s:x="0" s:y="10" s:pid="in0" id="port_genblk1[2].ps~RAMP">
      <text x="-3" y="-4" class="inputPortLabel cell_genblk1[2].ps">RAMP</text>
    </g>
    <g transform="translate(0,90)" s:x="0" s:y="10" s:pid="in0" id="port_genblk1[2].ps~READ">
      <text x="-3" y="-4" class="inputPortLabel cell_genblk1[2].ps">READ</text>
    </g>
    <g transform="translate(0,110)" s:x="0" s:y="10" s:pid="in0" id="port_genblk1[2].ps~VBN1">
      <text x="-3" y="-4" class="inputPortLabel cell_genblk1[2].ps">VBN1</text>
    </g>
    <g transform="translate(30,10)" s:x="30" s:y="10" s:pid="out0" id="port_genblk1[2].ps~DATA">
      <text x="5" y="-4" style="fill:#000; stroke:none" class="cell_genblk1[2].ps">DATA</text>
    </g>
  </g>
  <g s:type="generic" transform="translate(167,526)" s:width="30" s:height="40" id="cell_genblk1[3].ps">
    <text x="15" y="-4" class="nodelabel cell_genblk1[3].ps" s:attribute="ref">PIXEL_SENSOR 4</text>
    <rect width="30" height="120" s:generic="body" class="cell_genblk1[3].ps"/>
    <g transform="translate(0,10)" s:x="0" s:y="10" s:pid="in0" id="port_genblk1[3].ps~COUNTER">
      <text x="-3" y="-4" class="inputPortLabel cell_genblk1[3].ps">COUNTER</text>
    </g>
    <g transform="translate(0,30)" s:x="0" s:y="10" s:pid="in0" id="port_genblk1[3].ps~ERASE">
      <text x="-3" y="-4" class="inputPortLabel cell_genblk1[3].ps">ERASE</text>
    </g>
    <g transform="translate(0,50)" s:x="0" s:y="10" s:pid="in0" id="port_genblk1[3].ps~EXPOSE">
      <text x="-3" y="-4" class="inputPortLabel cell_genblk1[3].ps">EXPOSE</text>
    </g>
    <g transform="translate(0,70)" s:x="0" s:y="10" s:pid="in0" id="port_genblk1[3].ps~RAMP">
      <text x="-3" y="-4" class="inputPortLabel cell_genblk1[3].ps">RAMP</text>
    </g>
    <g transform="translate(0,90)" s:x="0" s:y="10" s:pid="in0" id="port_genblk1[3].ps~READ">
      <text x="-3" y="-4" class="inputPortLabel cell_genblk1[3].ps">READ</text>
    </g>
    <g transform="translate(0,110)" s:x="0" s:y="10" s:pid="in0" id="port_genblk1[3].ps~VBN1">
      <text x="-3" y="-4" class="inputPortLabel cell_genblk1[3].ps">VBN1</text>
    </g>
    <g transform="translate(30,10)" s:x="30" s:y="10" s:pid="out0" id="port_genblk1[3].ps~DATA">
      <text x="5" y="-4" style="fill:#000; stroke:none" class="cell_genblk1[3].ps">DATA</text>
    </g>
  </g>
  <g s:type="generic" transform="translate(167,694)" s:width="30" s:height="40" id="cell_genblk1[4].ps">
    <text x="15" y="-4" class="nodelabel cell_genblk1[4].ps" s:attribute="ref">PIXEL_SENSOR 5</text>
    <rect width="30" height="120" s:generic="body" class="cell_genblk1[4].ps"/>
    <g transform="translate(0,10)" s:x="0" s:y="10" s:pid="in0" id="port_genblk1[4].ps~COUNTER">
      <text x="-3" y="-4" class="inputPortLabel cell_genblk1[4].ps">COUNTER</text>
    </g>
    <g transform="translate(0,30)" s:x="0" s:y="10" s:pid="in0" id="port_genblk1[4].ps~ERASE">
      <text x="-3" y="-4" class="inputPortLabel cell_genblk1[4].ps">ERASE</text>
    </g>
    <g transform="translate(0,50)" s:x="0" s:y="10" s:pid="in0" id="port_genblk1[4].ps~EXPOSE">
      <text x="-3" y="-4" class="inputPortLabel cell_genblk1[4].ps">EXPOSE</text>
    </g>
    <g transform="translate(0,70)" s:x="0" s:y="10" s:pid="in0" id="port_genblk1[4].ps~RAMP">
      <text x="-3" y="-4" class="inputPortLabel cell_genblk1[4].ps">RAMP</text>
    </g>
    <g transform="translate(0,90)" s:x="0" s:y="10" s:pid="in0" id="port_genblk1[4].ps~READ">
      <text x="-3" y="-4" class="inputPortLabel cell_genblk1[4].ps">READ</text>
    </g>
    <g transform="translate(0,110)" s:x="0" s:y="10" s:pid="in0" id="port_genblk1[4].ps~VBN1">
      <text x="-3" y="-4" class="inputPortLabel cell_genblk1[4].ps">VBN1</text>
    </g>
    <g transform="translate(30,10)" s:x="30" s:y="10" s:pid="out0" id="port_genblk1[4].ps~DATA">
      <text x="5" y="-4" style="fill:#000; stroke:none" class="cell_genblk1[4].ps">DATA</text>
    </g>
  </g>
  <g s:type="generic" transform="translate(167,862)" s:width="30" s:height="40" id="cell_genblk1[5].ps">
    <text x="15" y="-4" class="nodelabel cell_genblk1[5].ps" s:attribute="ref">PIXEL_SENSOR 6</text>
    <rect width="30" height="120" s:generic="body" class="cell_genblk1[5].ps"/>
    <g transform="translate(0,10)" s:x="0" s:y="10" s:pid="in0" id="port_genblk1[5].ps~COUNTER">
      <text x="-3" y="-4" class="inputPortLabel cell_genblk1[5].ps">COUNTER</text>
    </g>
    <g transform="translate(0,30)" s:x="0" s:y="10" s:pid="in0" id="port_genblk1[5].ps~ERASE">
      <text x="-3" y="-4" class="inputPortLabel cell_genblk1[5].ps">ERASE</text>
    </g>
    <g transform="translate(0,50)" s:x="0" s:y="10" s:pid="in0" id="port_genblk1[5].ps~EXPOSE">
      <text x="-3" y="-4" class="inputPortLabel cell_genblk1[5].ps">EXPOSE</text>
    </g>
    <g transform="translate(0,70)" s:x="0" s:y="10" s:pid="in0" id="port_genblk1[5].ps~RAMP">
      <text x="-3" y="-4" class="inputPortLabel cell_genblk1[5].ps">RAMP</text>
    </g>
    <g transform="translate(0,90)" s:x="0" s:y="10" s:pid="in0" id="port_genblk1[5].ps~READ">
      <text x="-3" y="-4" class="inputPortLabel cell_genblk1[5].ps">READ</text>
    </g>
    <g transform="translate(0,110)" s:x="0" s:y="10" s:pid="in0" id="port_genblk1[5].ps~VBN1">
      <text x="-3" y="-4" class="inputPortLabel cell_genblk1[5].ps">VBN1</text>
    </g>
    <g transform="translate(30,10)" s:x="30" s:y="10" s:pid="out0" id="port_genblk1[5].ps~DATA">
      <text x="5" y="-4" style="fill:#000; stroke:none" class="cell_genblk1[5].ps">DATA</text>
    </g>
  </g>
  <g s:type="generic" transform="translate(167,1030)" s:width="30" s:height="40" id="cell_genblk1[6].ps">
    <text x="15" y="-4" class="nodelabel cell_genblk1[6].ps" s:attribute="ref">PIXEL_SENSOR 7</text>
    <rect width="30" height="120" s:generic="body" class="cell_genblk1[6].ps"/>
    <g transform="translate(0,10)" s:x="0" s:y="10" s:pid="in0" id="port_genblk1[6].ps~COUNTER">
      <text x="-3" y="-4" class="inputPortLabel cell_genblk1[6].ps">COUNTER</text>
    </g>
    <g transform="translate(0,30)" s:x="0" s:y="10" s:pid="in0" id="port_genblk1[6].ps~ERASE">
      <text x="-3" y="-4" class="inputPortLabel cell_genblk1[6].ps">ERASE</text>
    </g>
    <g transform="translate(0,50)" s:x="0" s:y="10" s:pid="in0" id="port_genblk1[6].ps~EXPOSE">
      <text x="-3" y="-4" class="inputPortLabel cell_genblk1[6].ps">EXPOSE</text>
    </g>
    <g transform="translate(0,70)" s:x="0" s:y="10" s:pid="in0" id="port_genblk1[6].ps~RAMP">
      <text x="-3" y="-4" class="inputPortLabel cell_genblk1[6].ps">RAMP</text>
    </g>
    <g transform="translate(0,90)" s:x="0" s:y="10" s:pid="in0" id="port_genblk1[6].ps~READ">
      <text x="-3" y="-4" class="inputPortLabel cell_genblk1[6].ps">READ</text>
    </g>
    <g transform="translate(0,110)" s:x="0" s:y="10" s:pid="in0" id="port_genblk1[6].ps~VBN1">
      <text x="-3" y="-4" class="inputPortLabel cell_genblk1[6].ps">VBN1</text>
    </g>
    <g transform="translate(30,10)" s:x="30" s:y="10" s:pid="out0" id="port_genblk1[6].ps~DATA">
      <text x="5" y="-4" style="fill:#000; stroke:none" class="cell_genblk1[6].ps">DATA</text>
    </g>
  </g>
  <g s:type="generic" transform="translate(167,1198)" s:width="30" s:height="40" id="cell_genblk1[7].ps">
    <text x="15" y="-4" class="nodelabel cell_genblk1[7].ps" s:attribute="ref">PIXEL_SENSOR 8</text>
    <rect width="30" height="120" s:generic="body" class="cell_genblk1[7].ps"/>
    <g transform="translate(0,10)" s:x="0" s:y="10" s:pid="in0" id="port_genblk1[7].ps~COUNTER">
      <text x="-3" y="-4" class="inputPortLabel cell_genblk1[7].ps">COUNTER</text>
    </g>
    <g transform="translate(0,30)" s:x="0" s:y="10" s:pid="in0" id="port_genblk1[7].ps~ERASE">
      <text x="-3" y="-4" class="inputPortLabel cell_genblk1[7].ps">ERASE</text>
    </g>
    <g transform="translate(0,50)" s:x="0" s:y="10" s:pid="in0" id="port_genblk1[7].ps~EXPOSE">
      <text x="-3" y="-4" class="inputPortLabel cell_genblk1[7].ps">EXPOSE</text>
    </g>
    <g transform="translate(0,70)" s:x="0" s:y="10" s:pid="in0" id="port_genblk1[7].ps~RAMP">
      <text x="-3" y="-4" class="inputPortLabel cell_genblk1[7].ps">RAMP</text>
    </g>
    <g transform="translate(0,90)" s:x="0" s:y="10" s:pid="in0" id="port_genblk1[7].ps~READ">
      <text x="-3" y="-4" class="inputPortLabel cell_genblk1[7].ps">READ</text>
    </g>
    <g transform="translate(0,110)" s:x="0" s:y="10" s:pid="in0" id="port_genblk1[7].ps~VBN1">
      <text x="-3" y="-4" class="inputPortLabel cell_genblk1[7].ps">VBN1</text>
    </g>
    <g transform="translate(30,10)" s:x="30" s:y="10" s:pid="out0" id="port_genblk1[7].ps~DATA">
      <text x="5" y="-4" style="fill:#000; stroke:none" class="cell_genblk1[7].ps">DATA</text>
    </g>
  </g>
  <g s:type="inputExt" transform="translate(12,974.5)" s:width="30" s:height="20" id="cell_VBN1">
    <text x="15" y="-4" class="nodelabel cell_VBN1" s:attribute="ref">VBN1</text>
    <s:alias val="$_inputExt_"/>
    <path d="M0,0 L0,20 L15,20 L30,10 L15,0 Z" class="cell_VBN1"/>
    <g s:x="28" s:y="10" s:pid="Y"/>
  </g>
  <g s:type="inputExt" transform="translate(12,844.5)" s:width="30" s:height="20" id="cell_RAMP">
    <text x="15" y="-4" class="nodelabel cell_RAMP" s:attribute="ref">RAMP</text>
    <s:alias val="$_inputExt_"/>
    <path d="M0,0 L0,20 L15,20 L30,10 L15,0 Z" class="cell_RAMP"/>
    <g s:x="28" s:y="10" s:pid="Y"/>
  </g>
  <g s:type="inputExt" transform="translate(12,714.5)" s:width="30" s:height="20" id="cell_ERASE">
    <text x="15" y="-4" class="nodelabel cell_ERASE" s:attribute="ref">ERASE</text>
    <s:alias val="$_inputExt_"/>
    <path d="M0,0 L0,20 L15,20 L30,10 L15,0 Z" class="cell_ERASE"/>
    <g s:x="28" s:y="10" s:pid="Y"/>
  </g>
  <g s:type="inputExt" transform="translate(12,779.5)" s:width="30" s:height="20" id="cell_EXPOSE">
    <text x="15" y="-4" class="nodelabel cell_EXPOSE" s:attribute="ref">EXPOSE</text>
    <s:alias val="$_inputExt_"/>
    <path d="M0,0 L0,20 L15,20 L30,10 L15,0 Z" class="cell_EXPOSE"/>
    <g s:x="28" s:y="10" s:pid="Y"/>
  </g>
  <g s:type="inputExt" transform="translate(12,909.5)" s:width="30" s:height="20" id="cell_READ">
    <text x="15" y="-4" class="nodelabel cell_READ" s:attribute="ref">READ</text>
    <s:alias val="$_inputExt_"/>
    <path d="M0,0 L0,20 L15,20 L30,10 L15,0 Z" class="cell_READ"/>
    <g s:x="28" s:y="10" s:pid="Y"/>
  </g>
  <g s:type="inputExt" transform="translate(12,526.5)" s:width="30" s:height="20" id="cell_COUNTER">
    <text x="15" y="-4" class="nodelabel cell_COUNTER" s:attribute="ref">COUNTER</text>
    <s:alias val="$_inputExt_"/>
    <path d="M0,0 L0,20 L15,20 L30,10 L15,0 Z" class="cell_COUNTER"/>
    <g s:x="28" s:y="10" s:pid="Y"/>
  </g>
  <g s:type="outputExt" transform="translate(360,180.5)" s:width="30" s:height="20" id="cell_DATA_OUT">
    <text x="15" y="-4" class="nodelabel cell_DATA_OUT" s:attribute="ref">DATA_OUT</text>
    <s:alias val="$_outputExt_"/>
    <path d="M30,0 L30,20 L15,20 L0,10 L15,0 Z" class="cell_DATA_OUT"/>
    <g s:x="0" s:y="10" s:pid="A"/>
  </g>
  <g s:type="join" transform="translate(305,170)" s:width="4" s:height="40" id="cell_$join$,15,16,17,18,19,20,21,22,23,24,25,26,27,28,29,30,31,32,33,34,35,36,37,38,39,40,41,42,43,44,45,46,47,48,49,50,51,52,53,54,55,56,57,58,59,60,61,62,63,64,65,66,67,68,69,70,71,72,73,74,75,76,77,78,">
    <rect width="5" height="160" class="splitjoinBody" s:generic="body"/>
    <s:alias val="$_join_"/>
    <g s:x="5" s:y="20" s:pid="out"/>
    <g transform="translate(0,10)" s:x="0" s:y="10" s:pid="in0">
      <text x="-3" y="-4" class="inputPortLabel">0:7</text>
    </g>
    <g transform="translate(0,30)" s:x="0" s:y="10" s:pid="in0">
      <text x="-3" y="-4" class="inputPortLabel">8:15</text>
    </g>
    <g transform="translate(0,50)" s:x="0" s:y="10" s:pid="in0">
      <text x="-3" y="-4" class="inputPortLabel">16:23</text>
    </g>
    <g transform="translate(0,70)" s:x="0" s:y="10" s:pid="in0">
      <text x="-3" y="-4" class="inputPortLabel">24:31</text>
    </g>
    <g transform="translate(0,90)" s:x="0" s:y="10" s:pid="in0">
      <text x="-3" y="-4" class="inputPortLabel">32:39</text>
    </g>
    <g transform="translate(0,110)" s:x="0" s:y="10" s:pid="in0">
      <text x="-3" y="-4" class="inputPortLabel">40:47</text>
    </g>
    <g transform="translate(0,130)" s:x="0" s:y="10" s:pid="in0">
      <text x="-3" y="-4" class="inputPortLabel">48:55</text>
    </g>
    <g transform="translate(0,150)" s:x="0" s:y="10" s:pid="in0">
      <text x="-3" y="-4" class="inputPortLabel">56:63</text>
    </g>
  </g>
  <line x1="40" x2="114" y1="536.5" y2="536.5" class="net_7,8,9,10,11,12,13,14"/>
  <line x1="114" x2="114" y1="536.5" y2="32.5" class="net_7,8,9,10,11,12,13,14"/>
  <circle cx="114" cy="536.5" r="2" style="fill:#000" class="net_7,8,9,10,11,12,13,14"/>
  <line x1="114" x2="167" y1="32.5" y2="32.5" class="net_7,8,9,10,11,12,13,14"/>
  <line x1="40" x2="114" y1="536.5" y2="536.5" class="net_7,8,9,10,11,12,13,14"/>
  <line x1="114" x2="114" y1="536.5" y2="200.5" class="net_7,8,9,10,11,12,13,14"/>
  <circle cx="114" cy="200.5" r="2" style="fill:#000" class="net_7,8,9,10,11,12,13,14"/>
  <line x1="114" x2="167" y1="200.5" y2="200.5" class="net_7,8,9,10,11,12,13,14"/>
  <line x1="40" x2="114" y1="536.5" y2="536.5" class="net_7,8,9,10,11,12,13,14"/>
  <line x1="114" x2="114" y1="536.5" y2="368.5" class="net_7,8,9,10,11,12,13,14"/>
  <circle cx="114" cy="368.5" r="2" style="fill:#000" class="net_7,8,9,10,11,12,13,14"/>
  <line x1="114" x2="167" y1="368.5" y2="368.5" class="net_7,8,9,10,11,12,13,14"/>
  <line x1="40" x2="167" y1="536.5" y2="536.5" class="net_7,8,9,10,11,12,13,14"/>
  <line x1="40" x2="114" y1="536.5" y2="536.5" class="net_7,8,9,10,11,12,13,14"/>
  <line x1="114" x2="114" y1="536.5" y2="704.5" class="net_7,8,9,10,11,12,13,14"/>
  <circle cx="114" cy="704.5" r="2" style="fill:#000" class="net_7,8,9,10,11,12,13,14"/>
  <line x1="114" x2="167" y1="704.5" y2="704.5" class="net_7,8,9,10,11,12,13,14"/>
  <line x1="40" x2="114" y1="536.5" y2="536.5" class="net_7,8,9,10,11,12,13,14"/>
  <line x1="114" x2="114" y1="536.5" y2="872.5" class="net_7,8,9,10,11,12,13,14"/>
  <circle cx="114" cy="872.5" r="2" style="fill:#000" class="net_7,8,9,10,11,12,13,14"/>
  <line x1="114" x2="167" y1="872.5" y2="872.5" class="net_7,8,9,10,11,12,13,14"/>
  <line x1="40" x2="114" y1="536.5" y2="536.5" class="net_7,8,9,10,11,12,13,14"/>
  <line x1="114" x2="114" y1="536.5" y2="1040.5" class="net_7,8,9,10,11,12,13,14"/>
  <circle cx="114" cy="1040.5" r="2" style="fill:#000" class="net_7,8,9,10,11,12,13,14"/>
  <line x1="114" x2="167" y1="1040.5" y2="1040.5" class="net_7,8,9,10,11,12,13,14"/>
  <line x1="40" x2="114" y1="536.5" y2="536.5" class="net_7,8,9,10,11,12,13,14"/>
  <line x1="114" x2="114" y1="536.5" y2="1208.5" class="net_7,8,9,10,11,12,13,14"/>
  <line x1="114" x2="167" y1="1208.5" y2="1208.5" class="net_7,8,9,10,11,12,13,14"/>
  <line x1="40" x2="104" y1="724.5" y2="724.5" class="net_4"/>
  <line x1="104" x2="104" y1="724.5" y2="52.5" class="net_4"/>
  <circle cx="104" cy="724.5" r="2" style="fill:#000" class="net_4"/>
  <line x1="104" x2="167" y1="52.5" y2="52.5" class="net_4"/>
  <line x1="40" x2="104" y1="724.5" y2="724.5" class="net_4"/>
  <line x1="104" x2="104" y1="724.5" y2="220.5" class="net_4"/>
  <circle cx="104" cy="220.5" r="2" style="fill:#000" class="net_4"/>
  <line x1="104" x2="167" y1="220.5" y2="220.5" class="net_4"/>
  <line x1="40" x2="104" y1="724.5" y2="724.5" class="net_4"/>
  <line x1="104" x2="104" y1="724.5" y2="388.5" class="net_4"/>
  <circle cx="104" cy="388.5" r="2" style="fill:#000" class="net_4"/>
  <line x1="104" x2="167" y1="388.5" y2="388.5" class="net_4"/>
  <line x1="40" x2="104" y1="724.5" y2="724.5" class="net_4"/>
  <line x1="104" x2="104" y1="724.5" y2="556.5" class="net_4"/>
  <circle cx="104" cy="556.5" r="2" style="fill:#000" class="net_4"/>
  <line x1="104" x2="167" y1="556.5" y2="556.5" class="net_4"/>
  <line x1="40" x2="167" y1="724.5" y2="724.5" class="net_4"/>
  <line x1="40" x2="104" y1="724.5" y2="724.5" class="net_4"/>
  <line x1="104" x2="104" y1="724.5" y2="892.5" class="net_4"/>
  <circle cx="104" cy="892.5" r="2" style="fill:#000" class="net_4"/>
  <line x1="104" x2="167" y1="892.5" y2="892.5" class="net_4"/>
  <line x1="40" x2="104" y1="724.5" y2="724.5" class="net_4"/>
  <line x1="104" x2="104" y1="724.5" y2="1060.5" class="net_4"/>
  <circle cx="104" cy="1060.5" r="2" style="fill:#000" class="net_4"/>
  <line x1="104" x2="167" y1="1060.5" y2="1060.5" class="net_4"/>
  <line x1="40" x2="104" y1="724.5" y2="724.5" class="net_4"/>
  <line x1="104" x2="104" y1="724.5" y2="1228.5" class="net_4"/>
  <line x1="104" x2="167" y1="1228.5" y2="1228.5" class="net_4"/>
  <line x1="40" x2="94" y1="789.5" y2="789.5" class="net_5"/>
  <line x1="94" x2="94" y1="789.5" y2="72.5" class="net_5"/>
  <circle cx="94" cy="789.5" r="2" style="fill:#000" class="net_5"/>
  <line x1="94" x2="167" y1="72.5" y2="72.5" class="net_5"/>
  <line x1="40" x2="94" y1="789.5" y2="789.5" class="net_5"/>
  <line x1="94" x2="94" y1="789.5" y2="240.5" class="net_5"/>
  <circle cx="94" cy="240.5" r="2" style="fill:#000" class="net_5"/>
  <line x1="94" x2="167" y1="240.5" y2="240.5" class="net_5"/>
  <line x1="40" x2="94" y1="789.5" y2="789.5" class="net_5"/>
  <line x1="94" x2="94" y1="789.5" y2="408.5" class="net_5"/>
  <circle cx="94" cy="408.5" r="2" style="fill:#000" class="net_5"/>
  <line x1="94" x2="167" y1="408.5" y2="408.5" class="net_5"/>
  <line x1="40" x2="94" y1="789.5" y2="789.5" class="net_5"/>
  <line x1="94" x2="94" y1="789.5" y2="576.5" class="net_5"/>
  <circle cx="94" cy="576.5" r="2" style="fill:#000" class="net_5"/>
  <line x1="94" x2="167" y1="576.5" y2="576.5" class="net_5"/>
  <line x1="40" x2="94" y1="789.5" y2="789.5" class="net_5"/>
  <line x1="94" x2="94" y1="789.5" y2="744.5" class="net_5"/>
  <circle cx="94" cy="744.5" r="2" style="fill:#000" class="net_5"/>
  <line x1="94" x2="167" y1="744.5" y2="744.5" class="net_5"/>
  <line x1="40" x2="94" y1="789.5" y2="789.5" class="net_5"/>
  <line x1="94" x2="94" y1="789.5" y2="912.5" class="net_5"/>
  <circle cx="94" cy="912.5" r="2" style="fill:#000" class="net_5"/>
  <line x1="94" x2="167" y1="912.5" y2="912.5" class="net_5"/>
  <line x1="40" x2="94" y1="789.5" y2="789.5" class="net_5"/>
  <line x1="94" x2="94" y1="789.5" y2="1080.5" class="net_5"/>
  <circle cx="94" cy="1080.5" r="2" style="fill:#000" class="net_5"/>
  <line x1="94" x2="167" y1="1080.5" y2="1080.5" class="net_5"/>
  <line x1="40" x2="94" y1="789.5" y2="789.5" class="net_5"/>
  <line x1="94" x2="94" y1="789.5" y2="1248.5" class="net_5"/>
  <line x1="94" x2="167" y1="1248.5" y2="1248.5" class="net_5"/>
  <line x1="40" x2="84" y1="854.5" y2="854.5" class="net_3"/>
  <line x1="84" x2="84" y1="854.5" y2="92.5" class="net_3"/>
  <circle cx="84" cy="854.5" r="2" style="fill:#000" class="net_3"/>
  <line x1="84" x2="167" y1="92.5" y2="92.5" class="net_3"/>
  <line x1="40" x2="84" y1="854.5" y2="854.5" class="net_3"/>
  <line x1="84" x2="84" y1="854.5" y2="260.5" class="net_3"/>
  <circle cx="84" cy="260.5" r="2" style="fill:#000" class="net_3"/>
  <line x1="84" x2="167" y1="260.5" y2="260.5" class="net_3"/>
  <line x1="40" x2="84" y1="854.5" y2="854.5" class="net_3"/>
  <line x1="84" x2="84" y1="854.5" y2="428.5" class="net_3"/>
  <circle cx="84" cy="428.5" r="2" style="fill:#000" class="net_3"/>
  <line x1="84" x2="167" y1="428.5" y2="428.5" class="net_3"/>
  <line x1="40" x2="84" y1="854.5" y2="854.5" class="net_3"/>
  <line x1="84" x2="84" y1="854.5" y2="596.5" class="net_3"/>
  <circle cx="84" cy="596.5" r="2" style="fill:#000" class="net_3"/>
  <line x1="84" x2="167" y1="596.5" y2="596.5" class="net_3"/>
  <line x1="40" x2="84" y1="854.5" y2="854.5" class="net_3"/>
  <line x1="84" x2="84" y1="854.5" y2="764.5" class="net_3"/>
  <circle cx="84" cy="764.5" r="2" style="fill:#000" class="net_3"/>
  <line x1="84" x2="167" y1="764.5" y2="764.5" class="net_3"/>
  <line x1="40" x2="84" y1="854.5" y2="854.5" class="net_3"/>
  <line x1="84" x2="84" y1="854.5" y2="932.5" class="net_3"/>
  <circle cx="84" cy="932.5" r="2" style="fill:#000" class="net_3"/>
  <line x1="84" x2="167" y1="932.5" y2="932.5" class="net_3"/>
  <line x1="40" x2="84" y1="854.5" y2="854.5" class="net_3"/>
  <line x1="84" x2="84" y1="854.5" y2="1100.5" class="net_3"/>
  <circle cx="84" cy="1100.5" r="2" style="fill:#000" class="net_3"/>
  <line x1="84" x2="167" y1="1100.5" y2="1100.5" class="net_3"/>
  <line x1="40" x2="84" y1="854.5" y2="854.5" class="net_3"/>
  <line x1="84" x2="84" y1="854.5" y2="1268.5" class="net_3"/>
  <line x1="84" x2="167" y1="1268.5" y2="1268.5" class="net_3"/>
  <line x1="40" x2="74" y1="919.5" y2="919.5" class="net_6"/>
  <line x1="74" x2="74" y1="919.5" y2="112.5" class="net_6"/>
  <circle cx="74" cy="919.5" r="2" style="fill:#000" class="net_6"/>
  <line x1="74" x2="167" y1="112.5" y2="112.5" class="net_6"/>
  <line x1="40" x2="74" y1="919.5" y2="919.5" class="net_6"/>
  <line x1="74" x2="74" y1="919.5" y2="280.5" class="net_6"/>
  <circle cx="74" cy="280.5" r="2" style="fill:#000" class="net_6"/>
  <line x1="74" x2="167" y1="280.5" y2="280.5" class="net_6"/>
  <line x1="40" x2="74" y1="919.5" y2="919.5" class="net_6"/>
  <line x1="74" x2="74" y1="919.5" y2="448.5" class="net_6"/>
  <circle cx="74" cy="448.5" r="2" style="fill:#000" class="net_6"/>
  <line x1="74" x2="167" y1="448.5" y2="448.5" class="net_6"/>
  <line x1="40" x2="74" y1="919.5" y2="919.5" class="net_6"/>
  <line x1="74" x2="74" y1="919.5" y2="616.5" class="net_6"/>
  <circle cx="74" cy="616.5" r="2" style="fill:#000" class="net_6"/>
  <line x1="74" x2="167" y1="616.5" y2="616.5" class="net_6"/>
  <line x1="40" x2="74" y1="919.5" y2="919.5" class="net_6"/>
  <line x1="74" x2="74" y1="919.5" y2="784.5" class="net_6"/>
  <circle cx="74" cy="784.5" r="2" style="fill:#000" class="net_6"/>
  <line x1="74" x2="167" y1="784.5" y2="784.5" class="net_6"/>
  <line x1="40" x2="74" y1="919.5" y2="919.5" class="net_6"/>
  <line x1="74" x2="74" y1="919.5" y2="952.5" class="net_6"/>
  <circle cx="74" cy="952.5" r="2" style="fill:#000" class="net_6"/>
  <line x1="74" x2="167" y1="952.5" y2="952.5" class="net_6"/>
  <line x1="40" x2="74" y1="919.5" y2="919.5" class="net_6"/>
  <line x1="74" x2="74" y1="919.5" y2="1120.5" class="net_6"/>
  <circle cx="74" cy="1120.5" r="2" style="fill:#000" class="net_6"/>
  <line x1="74" x2="167" y1="1120.5" y2="1120.5" class="net_6"/>
  <line x1="40" x2="74" y1="919.5" y2="919.5" class="net_6"/>
  <line x1="74" x2="74" y1="919.5" y2="1288.5" class="net_6"/>
  <line x1="74" x2="167" y1="1288.5" y2="1288.5" class="net_6"/>
  <line x1="40" x2="64" y1="984.5" y2="984.5" class="net_2"/>
  <line x1="64" x2="64" y1="984.5" y2="132.5" class="net_2"/>
  <circle cx="64" cy="984.5" r="2" style="fill:#000" class="net_2"/>
  <line x1="64" x2="167" y1="132.5" y2="132.5" class="net_2"/>
  <line x1="40" x2="64" y1="984.5" y2="984.5" class="net_2"/>
  <line x1="64" x2="64" y1="984.5" y2="300.5" class="net_2"/>
  <circle cx="64" cy="300.5" r="2" style="fill:#000" class="net_2"/>
  <line x1="64" x2="167" y1="300.5" y2="300.5" class="net_2"/>
  <line x1="40" x2="64" y1="984.5" y2="984.5" class="net_2"/>
  <line x1="64" x2="64" y1="984.5" y2="468.5" class="net_2"/>
  <circle cx="64" cy="468.5" r="2" style="fill:#000" class="net_2"/>
  <line x1="64" x2="167" y1="468.5" y2="468.5" class="net_2"/>
  <line x1="40" x2="64" y1="984.5" y2="984.5" class="net_2"/>
  <line x1="64" x2="64" y1="984.5" y2="636.5" class="net_2"/>
  <circle cx="64" cy="636.5" r="2" style="fill:#000" class="net_2"/>
  <line x1="64" x2="167" y1="636.5" y2="636.5" class="net_2"/>
  <line x1="40" x2="64" y1="984.5" y2="984.5" class="net_2"/>
  <line x1="64" x2="64" y1="984.5" y2="804.5" class="net_2"/>
  <circle cx="64" cy="804.5" r="2" style="fill:#000" class="net_2"/>
  <line x1="64" x2="167" y1="804.5" y2="804.5" class="net_2"/>
  <line x1="40" x2="64" y1="984.5" y2="984.5" class="net_2"/>
  <line x1="64" x2="64" y1="984.5" y2="972.5" class="net_2"/>
  <circle cx="64" cy="972.5" r="2" style="fill:#000" class="net_2"/>
  <line x1="64" x2="167" y1="972.5" y2="972.5" class="net_2"/>
  <line x1="40" x2="64" y1="984.5" y2="984.5" class="net_2"/>
  <line x1="64" x2="64" y1="984.5" y2="1140.5" class="net_2"/>
  <circle cx="64" cy="1140.5" r="2" style="fill:#000" class="net_2"/>
  <line x1="64" x2="167" y1="1140.5" y2="1140.5" class="net_2"/>
  <line x1="40" x2="64" y1="984.5" y2="984.5" class="net_2"/>
  <line x1="64" x2="64" y1="984.5" y2="1308.5" class="net_2"/>
  <line x1="64" x2="167" y1="1308.5" y2="1308.5" class="net_2"/>
  <line x1="311" x2="360" y1="190.5" y2="190.5" class="net_15,16,17,18,19,20,21,22,23,24,25,26,27,28,29,30,31,32,33,34,35,36,37,38,39,40,41,42,43,44,45,46,47,48,49,50,51,52,53,54,55,56,57,58,59,60,61,62,63,64,65,66,67,68,69,70,71,72,73,74,75,76,77,78"/>
  <line x1="198" x2="305.5" y1="32.5" y2="32.5" class="net_15,16,17,18,19,20,21,22"/>
  <line x1="305.5" x2="305.5" y1="32.5" y2="180" class="net_15,16,17,18,19,20,21,22"/>
  <line x1="198" x2="305" y1="200.5" y2="200.5" class="net_23,24,25,26,27,28,29,30"/>
  <line x1="198" x2="255" y1="368.5" y2="368.5" class="net_31,32,33,34,35,36,37,38"/>
  <line x1="255" x2="255" y1="368.5" y2="220.5" class="net_31,32,33,34,35,36,37,38"/>
  <line x1="255" x2="305" y1="220.5" y2="220.5" class="net_31,32,33,34,35,36,37,38"/>
  <line x1="198" x2="265" y1="536.5" y2="536.5" class="net_39,40,41,42,43,44,45,46"/>
  <line x1="265" x2="265" y1="536.5" y2="240.5" class="net_39,40,41,42,43,44,45,46"/>
  <line x1="265" x2="305" y1="240.5" y2="240.5" class="net_39,40,41,42,43,44,45,46"/>
  <line x1="198" x2="275" y1="704.5" y2="704.5" class="net_47,48,49,50,51,52,53,54"/>
  <line x1="275" x2="275" y1="704.5" y2="260.5" class="net_47,48,49,50,51,52,53,54"/>
  <line x1="275" x2="305" y1="260.5" y2="260.5" class="net_47,48,49,50,51,52,53,54"/>
  <line x1="198" x2="285" y1="872.5" y2="872.5" class="net_55,56,57,58,59,60,61,62"/>
  <line x1="285" x2="285" y1="872.5" y2="280.5" class="net_55,56,57,58,59,60,61,62"/>
  <line x1="285" x2="305" y1="280.5" y2="280.5" class="net_55,56,57,58,59,60,61,62"/>
  <line x1="198" x2="295" y1="1040.5" y2="1040.5" class="net_63,64,65,66,67,68,69,70"/>
  <line x1="295" x2="295" y1="1040.5" y2="300.5" class="net_63,64,65,66,67,68,69,70"/>
  <line x1="295" x2="305" y1="300.5" y2="300.5" class="net_63,64,65,66,67,68,69,70"/>
  <line x1="198" x2="305.5" y1="1208.5" y2="1208.5" class="net_71,72,73,74,75,76,77,78"/>
  <line x1="305.5" x2="305.5" y1="1208.5" y2="321" class="net_71,72,73,74,75,76,77,78"/>
</svg>
