<svg xmlns="http://www.w3.org/2000/svg" xmlns:xlink="http://www.w3.org/1999/xlink" xmlns:s="https://github.com/nturley/netlistsvg" width="780" height="799.5">
  <style>svg {
    stroke:#000;
    fill:none;
  }
  text {
    fill:#000;
    stroke:none;
    font-size:10px;
    font-weight: bold;
    font-family: "Courier New", monospace;
  }
  .nodelabel {
    text-anchor: middle;
  }
  .inputPortLabel {
    text-anchor: end;
  }
  .splitjoinBody {
    fill:#000;
  }</style>
  <g s:type="generic" transform="translate(297,26.5)" s:width="30" s:height="40" id="cell_$auto$simplemap.cc:581:simplemap_dlatch$92">
    <text x="15" y="-4" class="nodelabel cell_$auto$simplemap.cc:581:simplemap_dlatch$92" s:attribute="ref">DLATCH</text>
    <rect width="30" height="40" s:generic="body" fill="#E6E6FF" rx="0" class="cell_$auto$simplemap.cc:581:simplemap_dlatch$92"/>
    <g transform="translate(0,10)" s:x="0" s:y="10" s:pid="in0" id="port_$auto$simplemap.cc:581:simplemap_dlatch$92~D">
      <text x="-3" y="-4" class="inputPortLabel cell_$auto$simplemap.cc:581:simplemap_dlatch$92">D</text>
    </g>
    <g transform="translate(0,30)" s:x="0" s:y="10" s:pid="in0" id="port_$auto$simplemap.cc:581:simplemap_dlatch$92~E">
      <text x="-3" y="-4" class="inputPortLabel cell_$auto$simplemap.cc:581:simplemap_dlatch$92">E</text>
    </g>
    <g transform="translate(30,10)" s:x="30" s:y="10" s:pid="out0" id="port_$auto$simplemap.cc:581:simplemap_dlatch$92~Q">
      <text x="5" y="-4" style="fill:#000; stroke:none" class="cell_$auto$simplemap.cc:581:simplemap_dlatch$92">Q</text>
    </g>
  </g>
  <g s:type="generic" transform="translate(297,114.5)" s:width="30" s:height="40" id="cell_$auto$simplemap.cc:581:simplemap_dlatch$93">
    <text x="15" y="-4" class="nodelabel cell_$auto$simplemap.cc:581:simplemap_dlatch$93" s:attribute="ref">DLATCH</text>
    <rect width="30" height="40" s:generic="body" fill="#E6E6FF" rx="0" class="cell_$auto$simplemap.cc:581:simplemap_dlatch$93"/>
    <g transform="translate(0,10)" s:x="0" s:y="10" s:pid="in0" id="port_$auto$simplemap.cc:581:simplemap_dlatch$93~D">
      <text x="-3" y="-4" class="inputPortLabel cell_$auto$simplemap.cc:581:simplemap_dlatch$93">D</text>
    </g>
    <g transform="translate(0,30)" s:x="0" s:y="10" s:pid="in0" id="port_$auto$simplemap.cc:581:simplemap_dlatch$93~E">
      <text x="-3" y="-4" class="inputPortLabel cell_$auto$simplemap.cc:581:simplemap_dlatch$93">E</text>
    </g>
    <g transform="translate(30,10)" s:x="30" s:y="10" s:pid="out0" id="port_$auto$simplemap.cc:581:simplemap_dlatch$93~Q">
      <text x="5" y="-4" style="fill:#000; stroke:none" class="cell_$auto$simplemap.cc:581:simplemap_dlatch$93">Q</text>
    </g>
  </g>
  <g s:type="generic" transform="translate(297,202.5)" s:width="30" s:height="40" id="cell_$auto$simplemap.cc:581:simplemap_dlatch$94">
    <text x="15" y="-4" class="nodelabel cell_$auto$simplemap.cc:581:simplemap_dlatch$94" s:attribute="ref">DLATCH</text>
    <rect width="30" height="40" s:generic="body" fill="#E6E6FF" rx="0" class="cell_$auto$simplemap.cc:581:simplemap_dlatch$94"/>
    <g transform="translate(0,10)" s:x="0" s:y="10" s:pid="in0" id="port_$auto$simplemap.cc:581:simplemap_dlatch$94~D">
      <text x="-3" y="-4" class="inputPortLabel cell_$auto$simplemap.cc:581:simplemap_dlatch$94">D</text>
    </g>
    <g transform="translate(0,30)" s:x="0" s:y="10" s:pid="in0" id="port_$auto$simplemap.cc:581:simplemap_dlatch$94~E">
      <text x="-3" y="-4" class="inputPortLabel cell_$auto$simplemap.cc:581:simplemap_dlatch$94">E</text>
    </g>
    <g transform="translate(30,10)" s:x="30" s:y="10" s:pid="out0" id="port_$auto$simplemap.cc:581:simplemap_dlatch$94~Q">
      <text x="5" y="-4" style="fill:#000; stroke:none" class="cell_$auto$simplemap.cc:581:simplemap_dlatch$94">Q</text>
    </g>
  </g>
  <g s:type="generic" transform="translate(297,355.5)" s:width="30" s:height="40" id="cell_$auto$simplemap.cc:581:simplemap_dlatch$95">
    <text x="15" y="-4" class="nodelabel cell_$auto$simplemap.cc:581:simplemap_dlatch$95" s:attribute="ref">DLATCH</text>
    <rect width="30" height="40" s:generic="body" fill="#E6E6FF" rx="0" class="cell_$auto$simplemap.cc:581:simplemap_dlatch$95"/>
    <g transform="translate(0,10)" s:x="0" s:y="10" s:pid="in0" id="port_$auto$simplemap.cc:581:simplemap_dlatch$95~D">
      <text x="-3" y="-4" class="inputPortLabel cell_$auto$simplemap.cc:581:simplemap_dlatch$95">D</text>
    </g>
    <g transform="translate(0,30)" s:x="0" s:y="10" s:pid="in0" id="port_$auto$simplemap.cc:581:simplemap_dlatch$95~E">
      <text x="-3" y="-4" class="inputPortLabel cell_$auto$simplemap.cc:581:simplemap_dlatch$95">E</text>
    </g>
    <g transform="translate(30,10)" s:x="30" s:y="10" s:pid="out0" id="port_$auto$simplemap.cc:581:simplemap_dlatch$95~Q">
      <text x="5" y="-4" style="fill:#000; stroke:none" class="cell_$auto$simplemap.cc:581:simplemap_dlatch$95">Q</text>
    </g>
  </g>
  <g s:type="generic" transform="translate(297,480.5)" s:width="30" s:height="40" id="cell_$auto$simplemap.cc:581:simplemap_dlatch$96">
    <text x="15" y="-4" class="nodelabel cell_$auto$simplemap.cc:581:simplemap_dlatch$96" s:attribute="ref">DLATCH</text>
    <rect width="30" height="40" s:generic="body" fill="#E6E6FF" rx="0" class="cell_$auto$simplemap.cc:581:simplemap_dlatch$96"/>
    <g transform="translate(0,10)" s:x="0" s:y="10" s:pid="in0" id="port_$auto$simplemap.cc:581:simplemap_dlatch$96~D">
      <text x="-3" y="-4" class="inputPortLabel cell_$auto$simplemap.cc:581:simplemap_dlatch$96">D</text>
    </g>
    <g transform="translate(0,30)" s:x="0" s:y="10" s:pid="in0" id="port_$auto$simplemap.cc:581:simplemap_dlatch$96~E">
      <text x="-3" y="-4" class="inputPortLabel cell_$auto$simplemap.cc:581:simplemap_dlatch$96">E</text>
    </g>
    <g transform="translate(30,10)" s:x="30" s:y="10" s:pid="out0" id="port_$auto$simplemap.cc:581:simplemap_dlatch$96~Q">
      <text x="5" y="-4" style="fill:#000; stroke:none" class="cell_$auto$simplemap.cc:581:simplemap_dlatch$96">Q</text>
    </g>
  </g>
  <g s:type="generic" transform="translate(297,568.5)" s:width="30" s:height="40" id="cell_$auto$simplemap.cc:581:simplemap_dlatch$97">
    <text x="15" y="-4" class="nodelabel cell_$auto$simplemap.cc:581:simplemap_dlatch$97" s:attribute="ref">DLATCH</text>
    <rect width="30" height="40" s:generic="body" fill="#E6E6FF" rx="0" class="cell_$auto$simplemap.cc:581:simplemap_dlatch$97"/>
    <g transform="translate(0,10)" s:x="0" s:y="10" s:pid="in0" id="port_$auto$simplemap.cc:581:simplemap_dlatch$97~D">
      <text x="-3" y="-4" class="inputPortLabel cell_$auto$simplemap.cc:581:simplemap_dlatch$97">D</text>
    </g>
    <g transform="translate(0,30)" s:x="0" s:y="10" s:pid="in0" id="port_$auto$simplemap.cc:581:simplemap_dlatch$97~E">
      <text x="-3" y="-4" class="inputPortLabel cell_$auto$simplemap.cc:581:simplemap_dlatch$97">E</text>
    </g>
    <g transform="translate(30,10)" s:x="30" s:y="10" s:pid="out0" id="port_$auto$simplemap.cc:581:simplemap_dlatch$97~Q">
      <text x="5" y="-4" style="fill:#000; stroke:none" class="cell_$auto$simplemap.cc:581:simplemap_dlatch$97">Q</text>
    </g>
  </g>
  <g s:type="generic" transform="translate(297,656.5)" s:width="30" s:height="40" id="cell_$auto$simplemap.cc:581:simplemap_dlatch$98">
    <text x="15" y="-4" class="nodelabel cell_$auto$simplemap.cc:581:simplemap_dlatch$98" s:attribute="ref">DLATCH</text>
    <rect width="30" height="40" s:generic="body" fill="#E6E6FF" rx="0" class="cell_$auto$simplemap.cc:581:simplemap_dlatch$98"/>
    <g transform="translate(0,10)" s:x="0" s:y="10" s:pid="in0" id="port_$auto$simplemap.cc:581:simplemap_dlatch$98~D">
      <text x="-3" y="-4" class="inputPortLabel cell_$auto$simplemap.cc:581:simplemap_dlatch$98">D</text>
    </g>
    <g transform="translate(0,30)" s:x="0" s:y="10" s:pid="in0" id="port_$auto$simplemap.cc:581:simplemap_dlatch$98~E">
      <text x="-3" y="-4" class="inputPortLabel cell_$auto$simplemap.cc:581:simplemap_dlatch$98">E</text>
    </g>
    <g transform="translate(30,10)" s:x="30" s:y="10" s:pid="out0" id="port_$auto$simplemap.cc:581:simplemap_dlatch$98~Q">
      <text x="5" y="-4" style="fill:#000; stroke:none" class="cell_$auto$simplemap.cc:581:simplemap_dlatch$98">Q</text>
    </g>
  </g>
  <g s:type="generic" transform="translate(297,744.5)" s:width="30" s:height="40" id="cell_$auto$simplemap.cc:581:simplemap_dlatch$99">
    <text x="15" y="-4" class="nodelabel cell_$auto$simplemap.cc:581:simplemap_dlatch$99" s:attribute="ref">DLATCH</text>
    <rect width="30" height="40" s:generic="body" fill="#E6E6FF" rx="0" class="cell_$auto$simplemap.cc:581:simplemap_dlatch$99"/>
    <g transform="translate(0,10)" s:x="0" s:y="10" s:pid="in0" id="port_$auto$simplemap.cc:581:simplemap_dlatch$99~D">
      <text x="-3" y="-4" class="inputPortLabel cell_$auto$simplemap.cc:581:simplemap_dlatch$99">D</text>
    </g>
    <g transform="translate(0,30)" s:x="0" s:y="10" s:pid="in0" id="port_$auto$simplemap.cc:581:simplemap_dlatch$99~E">
      <text x="-3" y="-4" class="inputPortLabel cell_$auto$simplemap.cc:581:simplemap_dlatch$99">E</text>
    </g>
    <g transform="translate(30,10)" s:x="30" s:y="10" s:pid="out0" id="port_$auto$simplemap.cc:581:simplemap_dlatch$99~Q">
      <text x="5" y="-4" style="fill:#000; stroke:none" class="cell_$auto$simplemap.cc:581:simplemap_dlatch$99">Q</text>
    </g>
  </g>
  <g s:type="generic" transform="translate(127,500.5)" s:width="30" s:height="40" id="cell_PixelSensorAnalog">
    <text x="15" y="-4" class="nodelabel cell_PixelSensorAnalog" s:attribute="ref">PIXEL_SENSOR_ANALOG</text>
    <rect width="30" height="60" s:generic="body" fill="#E6E6FF" rx="0" class="cell_PixelSensorAnalog"/>
    <g transform="translate(0,10)" s:x="0" s:y="10" s:pid="in0" id="port_PixelSensorAnalog~ERASE">
      <text x="-3" y="-4" class="inputPortLabel cell_PixelSensorAnalog">ERASE</text>
    </g>
    <g transform="translate(0,30)" s:x="0" s:y="10" s:pid="in0" id="port_PixelSensorAnalog~EXPOSE">
      <text x="-3" y="-4" class="inputPortLabel cell_PixelSensorAnalog">EXPOSE</text>
    </g>
    <g transform="translate(0,50)" s:x="0" s:y="10" s:pid="in0" id="port_PixelSensorAnalog~RAMP">
      <text x="-3" y="-4" class="inputPortLabel cell_PixelSensorAnalog">RAMP</text>
    </g>
    <g transform="translate(30,10)" s:x="30" s:y="10" s:pid="out0" id="port_PixelSensorAnalog~CMP">
      <text x="5" y="-4" style="fill:#000; stroke:none" class="cell_PixelSensorAnalog">CMP</text>
    </g>
  </g>
  <g s:type="tribuf" transform="translate(584,22)" s:width="15" s:height="30" id="cell_Tristate[0]">
    <s:alias val="$tribuf"/>
    <s:alias val="$_TRIBUF_"/>
    <s:alias val="tribuf-bus"/>
    <s:alias val="$tribuf-bus"/>
    <s:alias val="$_TRIBUF_-bus"/>
    <s:alias val="Tristate"/>
    <s:alias val="TristateBus"/>
    <path d="M0,0 L25,15 L0,30 Z" class="cell_Tristate[0]"/>
    <g s:x="0" s:y="15" s:pid="A"/>
    <g s:x="11" s:y="6" s:pid="EN"/>
    <g s:x="25" s:y="15" s:pid="Y"/>
  </g>
  <g s:type="tribuf" transform="translate(584,110)" s:width="15" s:height="30" id="cell_Tristate[1]">
    <s:alias val="$tribuf"/>
    <s:alias val="$_TRIBUF_"/>
    <s:alias val="tribuf-bus"/>
    <s:alias val="$tribuf-bus"/>
    <s:alias val="$_TRIBUF_-bus"/>
    <s:alias val="Tristate"/>
    <s:alias val="TristateBus"/>
    <path d="M0,0 L25,15 L0,30 Z" class="cell_Tristate[1]"/>
    <g s:x="0" s:y="15" s:pid="A"/>
    <g s:x="11" s:y="6" s:pid="EN"/>
    <g s:x="25" s:y="15" s:pid="Y"/>
  </g>
  <g s:type="tribuf" transform="translate(584,198)" s:width="15" s:height="30" id="cell_Tristate[2]">
    <s:alias val="$tribuf"/>
    <s:alias val="$_TRIBUF_"/>
    <s:alias val="tribuf-bus"/>
    <s:alias val="$tribuf-bus"/>
    <s:alias val="$_TRIBUF_-bus"/>
    <s:alias val="Tristate"/>
    <s:alias val="TristateBus"/>
    <path d="M0,0 L25,15 L0,30 Z" class="cell_Tristate[2]"/>
    <g s:x="0" s:y="15" s:pid="A"/>
    <g s:x="11" s:y="6" s:pid="EN"/>
    <g s:x="25" s:y="15" s:pid="Y"/>
  </g>
  <g s:type="tribuf" transform="translate(584,351)" s:width="15" s:height="30" id="cell_Tristate[3]">
    <s:alias val="$tribuf"/>
    <s:alias val="$_TRIBUF_"/>
    <s:alias val="tribuf-bus"/>
    <s:alias val="$tribuf-bus"/>
    <s:alias val="$_TRIBUF_-bus"/>
    <s:alias val="Tristate"/>
    <s:alias val="TristateBus"/>
    <path d="M0,0 L25,15 L0,30 Z" class="cell_Tristate[3]"/>
    <g s:x="0" s:y="15" s:pid="A"/>
    <g s:x="11" s:y="6" s:pid="EN"/>
    <g s:x="25" s:y="15" s:pid="Y"/>
  </g>
  <g s:type="tribuf" transform="translate(584,476)" s:width="15" s:height="30" id="cell_Tristate[4]">
    <s:alias val="$tribuf"/>
    <s:alias val="$_TRIBUF_"/>
    <s:alias val="tribuf-bus"/>
    <s:alias val="$tribuf-bus"/>
    <s:alias val="$_TRIBUF_-bus"/>
    <s:alias val="Tristate"/>
    <s:alias val="TristateBus"/>
    <path d="M0,0 L25,15 L0,30 Z" class="cell_Tristate[4]"/>
    <g s:x="0" s:y="15" s:pid="A"/>
    <g s:x="11" s:y="6" s:pid="EN"/>
    <g s:x="25" s:y="15" s:pid="Y"/>
  </g>
  <g s:type="tribuf" transform="translate(584,564)" s:width="15" s:height="30" id="cell_Tristate[5]">
    <s:alias val="$tribuf"/>
    <s:alias val="$_TRIBUF_"/>
    <s:alias val="tribuf-bus"/>
    <s:alias val="$tribuf-bus"/>
    <s:alias val="$_TRIBUF_-bus"/>
    <s:alias val="Tristate"/>
    <s:alias val="TristateBus"/>
    <path d="M0,0 L25,15 L0,30 Z" class="cell_Tristate[5]"/>
    <g s:x="0" s:y="15" s:pid="A"/>
    <g s:x="11" s:y="6" s:pid="EN"/>
    <g s:x="25" s:y="15" s:pid="Y"/>
  </g>
  <g s:type="tribuf" transform="translate(584,652)" s:width="15" s:height="30" id="cell_Tristate[6]">
    <s:alias val="$tribuf"/>
    <s:alias val="$_TRIBUF_"/>
    <s:alias val="tribuf-bus"/>
    <s:alias val="$tribuf-bus"/>
    <s:alias val="$_TRIBUF_-bus"/>
    <s:alias val="Tristate"/>
    <s:alias val="TristateBus"/>
    <path d="M0,0 L25,15 L0,30 Z" class="cell_Tristate[6]"/>
    <g s:x="0" s:y="15" s:pid="A"/>
    <g s:x="11" s:y="6" s:pid="EN"/>
    <g s:x="25" s:y="15" s:pid="Y"/>
  </g>
  <g s:type="tribuf" transform="translate(584,740)" s:width="15" s:height="30" id="cell_Tristate[7]">
    <s:alias val="$tribuf"/>
    <s:alias val="$_TRIBUF_"/>
    <s:alias val="tribuf-bus"/>
    <s:alias val="$tribuf-bus"/>
    <s:alias val="$_TRIBUF_-bus"/>
    <s:alias val="Tristate"/>
    <s:alias val="TristateBus"/>
    <path d="M0,0 L25,15 L0,30 Z" class="cell_Tristate[7]"/>
    <g s:x="0" s:y="15" s:pid="A"/>
    <g s:x="11" s:y="6" s:pid="EN"/>
    <g s:x="25" s:y="15" s:pid="Y"/>
  </g>
  <g s:type="inputExt" transform="translate(297,290.5)" s:width="30" s:height="20" id="cell_READ">
    <text x="15" y="-4" class="nodelabel cell_READ" s:attribute="ref">READ</text>
    <s:alias val="$_inputExt_"/>
    <path d="M0,0 L0,20 L15,20 L30,10 L15,0 Z" fill="#ffffff" class="cell_READ"/>
    <g s:x="28" s:y="10" s:pid="Y"/>
  </g>
  <g s:type="inputExt" transform="translate(12,631)" s:width="30" s:height="20" id="cell_RAMP">
    <text x="15" y="-4" class="nodelabel cell_RAMP" s:attribute="ref">RAMP</text>
    <s:alias val="$_inputExt_"/>
    <path d="M0,0 L0,20 L15,20 L30,10 L15,0 Z" fill="#ffffff" class="cell_RAMP"/>
    <g s:x="28" s:y="10" s:pid="Y"/>
  </g>
  <g s:type="inputExt" transform="translate(12,501)" s:width="30" s:height="20" id="cell_ERASE">
    <text x="15" y="-4" class="nodelabel cell_ERASE" s:attribute="ref">ERASE</text>
    <s:alias val="$_inputExt_"/>
    <path d="M0,0 L0,20 L15,20 L30,10 L15,0 Z" fill="#ffffff" class="cell_ERASE"/>
    <g s:x="28" s:y="10" s:pid="Y"/>
  </g>
  <g s:type="inputExt" transform="translate(12,566)" s:width="30" s:height="20" id="cell_EXPOSE">
    <text x="15" y="-4" class="nodelabel cell_EXPOSE" s:attribute="ref">EXPOSE</text>
    <s:alias val="$_inputExt_"/>
    <path d="M0,0 L0,20 L15,20 L30,10 L15,0 Z" fill="#ffffff" class="cell_EXPOSE"/>
    <g s:x="28" s:y="10" s:pid="Y"/>
  </g>
  <g s:type="inputExt" transform="translate(12,366)" s:width="30" s:height="20" id="cell_COUNTER">
    <text x="15" y="-4" class="nodelabel cell_COUNTER" s:attribute="ref">COUNTER</text>
    <s:alias val="$_inputExt_"/>
    <path d="M0,0 L0,20 L15,20 L30,10 L15,0 Z" fill="#ffffff" class="cell_COUNTER"/>
    <g s:x="28" s:y="10" s:pid="Y"/>
  </g>
  <g s:type="outputExt" transform="translate(738,97)" s:width="30" s:height="20" id="cell_DATA">
    <text x="15" y="-4" class="nodelabel cell_DATA" s:attribute="ref">DATA</text>
    <s:alias val="$_outputExt_"/>
    <path d="M30,0 L30,20 L15,20 L0,10 L15,0 Z" fill="#ffffff" class="cell_DATA"/>
    <g s:x="0" s:y="10" s:pid="A"/>
  </g>
  <g s:type="join" transform="translate(697,26.5)" s:width="5" s:height="40" id="cell_$join$,14,15,16,17,18,19,20,21,">
    <rect width="5" height="160" class="splitjoinBody" s:generic="body"/>
    <s:alias val="$_join_"/>
    <g s:x="5" s:y="20" s:pid="out"/>
    <g transform="translate(-1,10)" s:x="-1" s:y="10" s:pid="in0">
      <text x="-3" y="-4" class="inputPortLabel">0</text>
    </g>
    <g transform="translate(-1,30)" s:x="-1" s:y="10" s:pid="in0">
      <text x="-3" y="-4" class="inputPortLabel">1</text>
    </g>
    <g transform="translate(-1,50)" s:x="-1" s:y="10" s:pid="in0">
      <text x="-3" y="-4" class="inputPortLabel">2</text>
    </g>
    <g transform="translate(-1,70)" s:x="-1" s:y="10" s:pid="in0">
      <text x="-3" y="-4" class="inputPortLabel">3</text>
    </g>
    <g transform="translate(-1,90)" s:x="-1" s:y="10" s:pid="in0">
      <text x="-3" y="-4" class="inputPortLabel">4</text>
    </g>
    <g transform="translate(-1,110)" s:x="-1" s:y="10" s:pid="in0">
      <text x="-3" y="-4" class="inputPortLabel">5</text>
    </g>
    <g transform="translate(-1,130)" s:x="-1" s:y="10" s:pid="in0">
      <text x="-3" y="-4" class="inputPortLabel">6</text>
    </g>
    <g transform="translate(-1,150)" s:x="-1" s:y="10" s:pid="in0">
      <text x="-3" y="-4" class="inputPortLabel">7</text>
    </g>
  </g>
  <g s:type="split" transform="translate(153,295.5)" s:width="5" s:height="40" id="cell_$split$,6,7,8,9,10,11,12,13,">
    <rect width="5" height="160" class="splitjoinBody" s:generic="body"/>
    <s:alias val="$_split_"/>
    <g s:x="-1" s:y="20" s:pid="in"/>
    <g transform="translate(5,10)" s:x="5" s:y="10" s:pid="out0">
      <text x="5" y="-4">0</text>
    </g>
    <g transform="translate(5,30)" s:x="5" s:y="10" s:pid="out0">
      <text x="5" y="-4">1</text>
    </g>
    <g transform="translate(5,50)" s:x="5" s:y="10" s:pid="out0">
      <text x="5" y="-4">2</text>
    </g>
    <g transform="translate(5,70)" s:x="5" s:y="10" s:pid="out0">
      <text x="5" y="-4">3</text>
    </g>
    <g transform="translate(5,90)" s:x="5" s:y="10" s:pid="out0">
      <text x="5" y="-4">4</text>
    </g>
    <g transform="translate(5,110)" s:x="5" s:y="10" s:pid="out0">
      <text x="5" y="-4">5</text>
    </g>
    <g transform="translate(5,130)" s:x="5" s:y="10" s:pid="out0">
      <text x="5" y="-4">6</text>
    </g>
    <g transform="translate(5,150)" s:x="5" s:y="10" s:pid="out0">
      <text x="5" y="-4">7</text>
    </g>
  </g>
  <line x1="159" x2="239" y1="306" y2="306" class="net_6"/>
  <line x1="239" x2="239" y1="306" y2="37" class="net_6"/>
  <line x1="239" x2="297" y1="37" y2="37" class="net_6"/>
  <line x1="158" x2="279" y1="511" y2="511" class="net_22"/>
  <line x1="279" x2="279" y1="511" y2="57" class="net_22"/>
  <circle cx="279" cy="511" r="2" style="fill:#000" class="net_22"/>
  <line x1="279" x2="296" y1="57" y2="57" class="net_22"/>
  <line x1="158" x2="279" y1="511" y2="511" class="net_22"/>
  <line x1="279" x2="279" y1="511" y2="145" class="net_22"/>
  <circle cx="279" cy="145" r="2" style="fill:#000" class="net_22"/>
  <line x1="279" x2="296" y1="145" y2="145" class="net_22"/>
  <line x1="158" x2="279" y1="511" y2="511" class="net_22"/>
  <line x1="279" x2="279" y1="511" y2="233" class="net_22"/>
  <circle cx="279" cy="233" r="2" style="fill:#000" class="net_22"/>
  <line x1="279" x2="296" y1="233" y2="233" class="net_22"/>
  <line x1="158" x2="279" y1="511" y2="511" class="net_22"/>
  <line x1="279" x2="279" y1="511" y2="386" class="net_22"/>
  <circle cx="279" cy="386" r="2" style="fill:#000" class="net_22"/>
  <line x1="279" x2="296" y1="386" y2="386" class="net_22"/>
  <line x1="158" x2="296" y1="511" y2="511" class="net_22"/>
  <line x1="158" x2="279" y1="511" y2="511" class="net_22"/>
  <line x1="279" x2="279" y1="511" y2="599" class="net_22"/>
  <circle cx="279" cy="599" r="2" style="fill:#000" class="net_22"/>
  <line x1="279" x2="296" y1="599" y2="599" class="net_22"/>
  <line x1="158" x2="279" y1="511" y2="511" class="net_22"/>
  <line x1="279" x2="279" y1="511" y2="687" class="net_22"/>
  <circle cx="279" cy="687" r="2" style="fill:#000" class="net_22"/>
  <line x1="279" x2="296" y1="687" y2="687" class="net_22"/>
  <line x1="158" x2="279" y1="511" y2="511" class="net_22"/>
  <line x1="279" x2="279" y1="511" y2="775" class="net_22"/>
  <line x1="279" x2="296" y1="775" y2="775" class="net_22"/>
  <line x1="159" x2="249" y1="326" y2="326" class="net_7"/>
  <line x1="249" x2="249" y1="326" y2="125" class="net_7"/>
  <line x1="249" x2="297" y1="125" y2="125" class="net_7"/>
  <line x1="159" x2="259" y1="346" y2="346" class="net_8"/>
  <line x1="259" x2="259" y1="346" y2="213" class="net_8"/>
  <line x1="259" x2="297" y1="213" y2="213" class="net_8"/>
  <line x1="159" x2="297" y1="366" y2="366" class="net_9"/>
  <line x1="159" x2="269" y1="386" y2="386" class="net_10"/>
  <line x1="269" x2="269" y1="386" y2="491" class="net_10"/>
  <line x1="269" x2="297" y1="491" y2="491" class="net_10"/>
  <line x1="159" x2="259" y1="406" y2="406" class="net_11"/>
  <line x1="259" x2="259" y1="406" y2="579" class="net_11"/>
  <line x1="259" x2="297" y1="579" y2="579" class="net_11"/>
  <line x1="159" x2="249" y1="426" y2="426" class="net_12"/>
  <line x1="249" x2="249" y1="426" y2="667" class="net_12"/>
  <line x1="249" x2="297" y1="667" y2="667" class="net_12"/>
  <line x1="159" x2="239" y1="446" y2="446" class="net_13"/>
  <line x1="239" x2="239" y1="446" y2="755" class="net_13"/>
  <line x1="239" x2="297" y1="755" y2="755" class="net_13"/>
  <line x1="40" x2="127" y1="511" y2="511" class="net_3"/>
  <line x1="40" x2="64" y1="576" y2="576" class="net_4"/>
  <line x1="64" x2="64" y1="576" y2="531" class="net_4"/>
  <line x1="64" x2="126" y1="531" y2="531" class="net_4"/>
  <line x1="40" x2="74" y1="641" y2="641" class="net_2"/>
  <line x1="74" x2="74" y1="641" y2="551" class="net_2"/>
  <line x1="74" x2="126" y1="551" y2="551" class="net_2"/>
  <line x1="328" x2="584" y1="37" y2="37" class="net_23"/>
  <line x1="325" x2="559" y1="300.5" y2="300.5" class="net_5"/>
  <line x1="559" x2="559" y1="300.5" y2="12" class="net_5"/>
  <line x1="559" x2="595" y1="12" y2="12" class="net_5"/>
  <circle cx="559" cy="300.5" r="2" style="fill:#000" class="net_5"/>
  <line x1="595" x2="595" y1="12" y2="28" class="net_5"/>
  <line x1="325" x2="559" y1="300.5" y2="300.5" class="net_5"/>
  <line x1="559" x2="559" y1="300.5" y2="100" class="net_5"/>
  <line x1="559" x2="595" y1="100" y2="100" class="net_5"/>
  <circle cx="559" cy="100" r="2" style="fill:#000" class="net_5"/>
  <line x1="595" x2="595" y1="100" y2="116" class="net_5"/>
  <line x1="325" x2="559" y1="300.5" y2="300.5" class="net_5"/>
  <line x1="559" x2="559" y1="300.5" y2="188" class="net_5"/>
  <line x1="559" x2="595" y1="188" y2="188" class="net_5"/>
  <circle cx="559" cy="188" r="2" style="fill:#000" class="net_5"/>
  <line x1="595" x2="595" y1="188" y2="204" class="net_5"/>
  <line x1="325" x2="595" y1="300.5" y2="300.5" class="net_5"/>
  <line x1="595" x2="595" y1="300.5" y2="357" class="net_5"/>
  <line x1="325" x2="559" y1="300.5" y2="300.5" class="net_5"/>
  <line x1="559" x2="559" y1="300.5" y2="391" class="net_5"/>
  <line x1="559" x2="595" y1="391" y2="391" class="net_5"/>
  <circle cx="559" cy="391" r="2" style="fill:#000" class="net_5"/>
  <line x1="595" x2="595" y1="391" y2="482" class="net_5"/>
  <line x1="325" x2="559" y1="300.5" y2="300.5" class="net_5"/>
  <line x1="559" x2="559" y1="300.5" y2="516" class="net_5"/>
  <line x1="559" x2="595" y1="516" y2="516" class="net_5"/>
  <circle cx="559" cy="516" r="2" style="fill:#000" class="net_5"/>
  <line x1="595" x2="595" y1="516" y2="570" class="net_5"/>
  <line x1="325" x2="559" y1="300.5" y2="300.5" class="net_5"/>
  <line x1="559" x2="559" y1="300.5" y2="604" class="net_5"/>
  <line x1="559" x2="595" y1="604" y2="604" class="net_5"/>
  <circle cx="559" cy="604" r="2" style="fill:#000" class="net_5"/>
  <line x1="595" x2="595" y1="604" y2="658" class="net_5"/>
  <line x1="325" x2="559" y1="300.5" y2="300.5" class="net_5"/>
  <line x1="559" x2="559" y1="300.5" y2="692" class="net_5"/>
  <line x1="559" x2="595" y1="692" y2="692" class="net_5"/>
  <line x1="595" x2="595" y1="692" y2="746" class="net_5"/>
  <line x1="328" x2="584" y1="125" y2="125" class="net_24"/>
  <line x1="328" x2="584" y1="213" y2="213" class="net_25"/>
  <line x1="328" x2="584" y1="366" y2="366" class="net_26"/>
  <line x1="328" x2="584" y1="491" y2="491" class="net_27"/>
  <line x1="328" x2="584" y1="579" y2="579" class="net_28"/>
  <line x1="328" x2="584" y1="667" y2="667" class="net_29"/>
  <line x1="328" x2="584" y1="755" y2="755" class="net_30"/>
  <line x1="703" x2="738" y1="107" y2="107" class="net_14,15,16,17,18,19,20,21"/>
  <line x1="609" x2="696" y1="37" y2="37" class="net_14"/>
  <line x1="609" x2="619" y1="125" y2="125" class="net_15"/>
  <line x1="619" x2="619" y1="125" y2="57" class="net_15"/>
  <line x1="619" x2="696" y1="57" y2="57" class="net_15"/>
  <line x1="609" x2="629" y1="213" y2="213" class="net_16"/>
  <line x1="629" x2="629" y1="213" y2="77" class="net_16"/>
  <line x1="629" x2="696" y1="77" y2="77" class="net_16"/>
  <line x1="609" x2="639" y1="366" y2="366" class="net_17"/>
  <line x1="639" x2="639" y1="366" y2="97" class="net_17"/>
  <line x1="639" x2="696" y1="97" y2="97" class="net_17"/>
  <line x1="609" x2="649" y1="491" y2="491" class="net_18"/>
  <line x1="649" x2="649" y1="491" y2="117" class="net_18"/>
  <line x1="649" x2="696" y1="117" y2="117" class="net_18"/>
  <line x1="609" x2="659" y1="579" y2="579" class="net_19"/>
  <line x1="659" x2="659" y1="579" y2="137" class="net_19"/>
  <line x1="659" x2="696" y1="137" y2="137" class="net_19"/>
  <line x1="609" x2="669" y1="667" y2="667" class="net_20"/>
  <line x1="669" x2="669" y1="667" y2="157" class="net_20"/>
  <line x1="669" x2="696" y1="157" y2="157" class="net_20"/>
  <line x1="609" x2="679" y1="755" y2="755" class="net_21"/>
  <line x1="679" x2="679" y1="755" y2="177" class="net_21"/>
  <line x1="679" x2="696" y1="177" y2="177" class="net_21"/>
  <line x1="40" x2="152" y1="376" y2="376" class="net_6,7,8,9,10,11,12,13"/>
</svg>
