<svg xmlns="http://www.w3.org/2000/svg" xmlns:xlink="http://www.w3.org/1999/xlink" xmlns:s="https://github.com/nturley/netlistsvg" width="720" height="626">
  <style>svg {
    stroke:#000;
    fill:none;
  }
  text {
    fill:#000;
    stroke:none;
    font-size:10px;
    font-weight: bold;
    font-family: "Courier New", monospace;
  }
  .nodelabel {
    text-anchor: middle;
  }
  .inputPortLabel {
    text-anchor: end;
  }
  .splitjoinBody {
    fill:#000;
  }</style>
  <g s:type="mux" transform="translate(664,268)" s:width="20" s:height="40" id="cell_$auto$dfflegalize.cc:402:handle_ff$49988">
    <s:alias val="$pmux"/>
    <s:alias val="$mux"/>
    <s:alias val="$_MUX_"/>
    <path d="M0,0 L20,10 L20,30 L0,40 Z" class="cell_$auto$dfflegalize.cc:402:handle_ff$49988"/>
    <g s:x="0" s:y="10" s:pid="A"/>
    <g s:x="0" s:y="30" s:pid="B"/>
    <g s:x="10" s:y="35" s:pid="S"/>
    <g s:x="20" s:y="20" s:pid="Y"/>
  </g>
  <g s:type="mux" transform="translate(664,77)" s:width="20" s:height="40" id="cell_$auto$dfflegalize.cc:402:handle_ff$49990">
    <s:alias val="$pmux"/>
    <s:alias val="$mux"/>
    <s:alias val="$_MUX_"/>
    <path d="M0,0 L20,10 L20,30 L0,40 Z" class="cell_$auto$dfflegalize.cc:402:handle_ff$49990"/>
    <g s:x="0" s:y="10" s:pid="A"/>
    <g s:x="0" s:y="30" s:pid="B"/>
    <g s:x="10" s:y="35" s:pid="S"/>
    <g s:x="20" s:y="20" s:pid="Y"/>
  </g>
  <g s:type="mux" transform="translate(664,137)" s:width="20" s:height="40" id="cell_$auto$dfflegalize.cc:402:handle_ff$49992">
    <s:alias val="$pmux"/>
    <s:alias val="$mux"/>
    <s:alias val="$_MUX_"/>
    <path d="M0,0 L20,10 L20,30 L0,40 Z" class="cell_$auto$dfflegalize.cc:402:handle_ff$49992"/>
    <g s:x="0" s:y="10" s:pid="A"/>
    <g s:x="0" s:y="30" s:pid="B"/>
    <g s:x="10" s:y="35" s:pid="S"/>
    <g s:x="20" s:y="20" s:pid="Y"/>
  </g>
  <g s:type="mux" transform="translate(664,328)" s:width="20" s:height="40" id="cell_$auto$dfflegalize.cc:402:handle_ff$49994">
    <s:alias val="$pmux"/>
    <s:alias val="$mux"/>
    <s:alias val="$_MUX_"/>
    <path d="M0,0 L20,10 L20,30 L0,40 Z" class="cell_$auto$dfflegalize.cc:402:handle_ff$49994"/>
    <g s:x="0" s:y="10" s:pid="A"/>
    <g s:x="0" s:y="30" s:pid="B"/>
    <g s:x="10" s:y="35" s:pid="S"/>
    <g s:x="20" s:y="20" s:pid="Y"/>
  </g>
  <g s:type="mux" transform="translate(508,369)" s:width="20" s:height="40" id="cell_$auto$simplemap.cc:277:simplemap_mux$43468">
    <s:alias val="$pmux"/>
    <s:alias val="$mux"/>
    <s:alias val="$_MUX_"/>
    <path d="M0,0 L20,10 L20,30 L0,40 Z" class="cell_$auto$simplemap.cc:277:simplemap_mux$43468"/>
    <g s:x="0" s:y="10" s:pid="A"/>
    <g s:x="0" s:y="30" s:pid="B"/>
    <g s:x="10" s:y="35" s:pid="S"/>
    <g s:x="20" s:y="20" s:pid="Y"/>
  </g>
  <g s:type="mux" transform="translate(508,429)" s:width="20" s:height="40" id="cell_$auto$simplemap.cc:277:simplemap_mux$43469">
    <s:alias val="$pmux"/>
    <s:alias val="$mux"/>
    <s:alias val="$_MUX_"/>
    <path d="M0,0 L20,10 L20,30 L0,40 Z" class="cell_$auto$simplemap.cc:277:simplemap_mux$43469"/>
    <g s:x="0" s:y="10" s:pid="A"/>
    <g s:x="0" s:y="30" s:pid="B"/>
    <g s:x="10" s:y="35" s:pid="S"/>
    <g s:x="20" s:y="20" s:pid="Y"/>
  </g>
  <g s:type="mux" transform="translate(508,489)" s:width="20" s:height="40" id="cell_$auto$simplemap.cc:277:simplemap_mux$43470">
    <s:alias val="$pmux"/>
    <s:alias val="$mux"/>
    <s:alias val="$_MUX_"/>
    <path d="M0,0 L20,10 L20,30 L0,40 Z" class="cell_$auto$simplemap.cc:277:simplemap_mux$43470"/>
    <g s:x="0" s:y="10" s:pid="A"/>
    <g s:x="0" s:y="30" s:pid="B"/>
    <g s:x="10" s:y="35" s:pid="S"/>
    <g s:x="20" s:y="20" s:pid="Y"/>
  </g>
  <g s:type="mux" transform="translate(508,564)" s:width="20" s:height="40" id="cell_$auto$simplemap.cc:277:simplemap_mux$43471">
    <s:alias val="$pmux"/>
    <s:alias val="$mux"/>
    <s:alias val="$_MUX_"/>
    <path d="M0,0 L20,10 L20,30 L0,40 Z" class="cell_$auto$simplemap.cc:277:simplemap_mux$43471"/>
    <g s:x="0" s:y="10" s:pid="A"/>
    <g s:x="0" s:y="30" s:pid="B"/>
    <g s:x="10" s:y="35" s:pid="S"/>
    <g s:x="20" s:y="20" s:pid="Y"/>
  </g>
  <g s:type="generic" transform="translate(96,22)" s:width="30" s:height="40" id="cell_$auto$simplemap.cc:559:simplemap_adffe_sdffe_sdffce$43472">
    <text x="15" y="-4" class="nodelabel cell_$auto$simplemap.cc:559:simplemap_adffe_sdffe_sdffce$43472" s:attribute="ref">DFFSR</text>
    <rect width="30" height="0" s:generic="body" class="cell_$auto$simplemap.cc:559:simplemap_adffe_sdffe_sdffce$43472"/>
  </g>
  <g s:type="generic" transform="translate(12,64)" s:width="30" s:height="40" id="cell_$auto$simplemap.cc:559:simplemap_adffe_sdffe_sdffce$43473">
    <text x="15" y="-4" class="nodelabel cell_$auto$simplemap.cc:559:simplemap_adffe_sdffe_sdffce$43473" s:attribute="ref">DFFSR</text>
    <rect width="30" height="0" s:generic="body" class="cell_$auto$simplemap.cc:559:simplemap_adffe_sdffe_sdffce$43473"/>
  </g>
  <g s:type="generic" transform="translate(366,64)" s:width="30" s:height="40" id="cell_$auto$simplemap.cc:559:simplemap_adffe_sdffe_sdffce$43474">
    <text x="15" y="-4" class="nodelabel cell_$auto$simplemap.cc:559:simplemap_adffe_sdffe_sdffce$43474" s:attribute="ref">DFFSR</text>
    <rect width="30" height="0" s:generic="body" class="cell_$auto$simplemap.cc:559:simplemap_adffe_sdffe_sdffce$43474"/>
  </g>
  <g s:type="generic" transform="translate(12,87)" s:width="30" s:height="40" id="cell_$auto$simplemap.cc:559:simplemap_adffe_sdffe_sdffce$43475">
    <text x="15" y="-4" class="nodelabel cell_$auto$simplemap.cc:559:simplemap_adffe_sdffe_sdffce$43475" s:attribute="ref">DFFSR</text>
    <rect width="30" height="0" s:generic="body" class="cell_$auto$simplemap.cc:559:simplemap_adffe_sdffe_sdffce$43475"/>
  </g>
  <g s:type="inputExt" transform="translate(12,22)" s:width="30" s:height="20" id="cell_clk">
    <text x="15" y="-4" class="nodelabel cell_clk" s:attribute="ref">clk</text>
    <s:alias val="$_inputExt_"/>
    <path d="M0,0 L0,20 L15,20 L30,10 L15,0 Z" class="cell_clk"/>
    <g s:x="28" s:y="10" s:pid="Y"/>
  </g>
  <g s:type="inputExt" transform="translate(563,223)" s:width="30" s:height="20" id="cell_inputEnable">
    <text x="15" y="-4" class="nodelabel cell_inputEnable" s:attribute="ref">inputEnable</text>
    <s:alias val="$_inputExt_"/>
    <path d="M0,0 L0,20 L15,20 L30,10 L15,0 Z" class="cell_inputEnable"/>
    <g s:x="28" s:y="10" s:pid="Y"/>
  </g>
  <g s:type="inputExt" transform="translate(366,544)" s:width="30" s:height="20" id="cell_outputEnable">
    <text x="15" y="-4" class="nodelabel cell_outputEnable" s:attribute="ref">outputEnable</text>
    <s:alias val="$_inputExt_"/>
    <path d="M0,0 L0,20 L15,20 L30,10 L15,0 Z" class="cell_outputEnable"/>
    <g s:x="28" s:y="10" s:pid="Y"/>
  </g>
  <g s:type="inputExt" transform="translate(54,22)" s:width="30" s:height="20" id="cell_reset">
    <text x="15" y="-4" class="nodelabel cell_reset" s:attribute="ref">reset</text>
    <s:alias val="$_inputExt_"/>
    <path d="M0,0 L0,20 L15,20 L30,10 L15,0 Z" class="cell_reset"/>
    <g s:x="28" s:y="10" s:pid="Y"/>
  </g>
  <g s:type="outputExt" transform="translate(664,469)" s:width="30" s:height="20" id="cell_out">
    <text x="15" y="-4" class="nodelabel cell_out" s:attribute="ref">out</text>
    <s:alias val="$_outputExt_"/>
    <path d="M30,0 L30,20 L15,20 L0,10 L15,0 Z" class="cell_out"/>
    <g s:x="0" s:y="10" s:pid="A"/>
  </g>
  <g s:type="constant" transform="translate(563,288)" s:width="30" s:height="20" id="cell_0">
    <text x="15" y="-4" class="nodelabel cell_0" s:attribute="ref">0</text>
    <s:alias val="$_constant_"/>
    <rect width="30" height="20" class="cell_0"/>
    <g s:x="30" s:y="10" s:pid="Y"/>
  </g>
  <g s:type="join" transform="translate(582,458.5)" s:width="4" s:height="40" id="cell_$join$,6,7,8,9,">
    <rect width="5" height="80" class="splitjoinBody" s:generic="body"/>
    <s:alias val="$_join_"/>
    <g s:x="5" s:y="20" s:pid="out"/>
    <g transform="translate(0,10)" s:x="0" s:y="10" s:pid="in0">
      <text x="-3" y="-4" class="inputPortLabel">0</text>
    </g>
    <g transform="translate(0,30)" s:x="0" s:y="10" s:pid="in0">
      <text x="-3" y="-4" class="inputPortLabel">1</text>
    </g>
    <g transform="translate(0,50)" s:x="0" s:y="10" s:pid="in0">
      <text x="-3" y="-4" class="inputPortLabel">2</text>
    </g>
    <g transform="translate(0,70)" s:x="0" s:y="10" s:pid="in0">
      <text x="-3" y="-4" class="inputPortLabel">3</text>
    </g>
  </g>
  <line x1="498" x2="649" y1="202" y2="278" class="net_10"/>
  <line x1="649" x2="664" y1="278" y2="278" class="net_10"/>
  <line x1="498" x2="498" y1="202" y2="107" class="net_10"/>
  <circle cx="498" cy="202" r="2" style="fill:#000" class="net_10"/>
  <line x1="498" x2="664" y1="107" y2="107" class="net_10"/>
  <line x1="498" x2="498" y1="202" y2="399" class="net_10"/>
  <line x1="498" x2="508" y1="399" y2="399" class="net_10"/>
  <line x1="593" x2="664" y1="298" y2="298" class="net_18"/>
  <line x1="591" x2="639" y1="233" y2="233" class="net_3"/>
  <line x1="639" x2="639" y1="233" y2="318" class="net_3"/>
  <line x1="639" x2="674" y1="318" y2="318" class="net_3"/>
  <circle cx="639" cy="233" r="2" style="fill:#000" class="net_3"/>
  <circle cx="639" cy="318" r="2" style="fill:#000" class="net_3"/>
  <line x1="674" x2="674" y1="318" y2="303" class="net_3"/>
  <line x1="591" x2="639" y1="233" y2="233" class="net_3"/>
  <line x1="639" x2="639" y1="233" y2="127" class="net_3"/>
  <line x1="639" x2="674" y1="127" y2="127" class="net_3"/>
  <line x1="674" x2="674" y1="127" y2="112" class="net_3"/>
  <line x1="591" x2="674" y1="233" y2="233" class="net_3"/>
  <line x1="674" x2="674" y1="233" y2="172" class="net_3"/>
  <line x1="591" x2="639" y1="233" y2="233" class="net_3"/>
  <line x1="639" x2="639" y1="233" y2="378" class="net_3"/>
  <line x1="639" x2="674" y1="378" y2="378" class="net_3"/>
  <line x1="674" x2="674" y1="378" y2="363" class="net_3"/>
  <line x1="468" x2="468" y1="167" y2="87" class="net_12"/>
  <circle cx="468" cy="167" r="2" style="fill:#000" class="net_12"/>
  <line x1="468" x2="664" y1="87" y2="87" class="net_12"/>
  <line x1="468" x2="664" y1="167" y2="167" class="net_12"/>
  <line x1="468" x2="468" y1="167" y2="459" class="net_12"/>
  <line x1="468" x2="508" y1="459" y2="459" class="net_12"/>
  <line x1="458" x2="458" y1="303" y2="147" class="net_14"/>
  <line x1="458" x2="664" y1="147" y2="147" class="net_14"/>
  <line x1="458" x2="458" y1="303" y2="358" class="net_14"/>
  <circle cx="458" cy="358" r="2" style="fill:#000" class="net_14"/>
  <line x1="458" x2="664" y1="358" y2="358" class="net_14"/>
  <line x1="458" x2="458" y1="303" y2="519" class="net_14"/>
  <line x1="458" x2="508" y1="519" y2="519" class="net_14"/>
  <line x1="448" x2="664" y1="338" y2="338" class="net_16"/>
  <line x1="448" x2="448" y1="338" y2="594" class="net_16"/>
  <line x1="448" x2="508" y1="594" y2="594" class="net_16"/>
  <line x1="488" x2="488" y1="499" y2="379" class="net_x"/>
  <circle cx="488" cy="499" r="2" style="fill:#000" class="net_x"/>
  <line x1="488" x2="508" y1="379" y2="379" class="net_x"/>
  <line x1="488" x2="488" y1="499" y2="439" class="net_x"/>
  <circle cx="488" cy="439" r="2" style="fill:#000" class="net_x"/>
  <line x1="488" x2="508" y1="439" y2="439" class="net_x"/>
  <line x1="488" x2="508" y1="499" y2="499" class="net_x"/>
  <line x1="488" x2="488" y1="499" y2="574" class="net_x"/>
  <line x1="488" x2="508" y1="574" y2="574" class="net_x"/>
  <line x1="394" x2="478" y1="554" y2="554" class="net_4"/>
  <line x1="478" x2="478" y1="554" y2="419" class="net_4"/>
  <line x1="478" x2="518" y1="419" y2="419" class="net_4"/>
  <circle cx="478" cy="554" r="2" style="fill:#000" class="net_4"/>
  <line x1="518" x2="518" y1="419" y2="404" class="net_4"/>
  <line x1="394" x2="478" y1="554" y2="554" class="net_4"/>
  <line x1="478" x2="478" y1="554" y2="479" class="net_4"/>
  <line x1="478" x2="518" y1="479" y2="479" class="net_4"/>
  <circle cx="478" cy="479" r="2" style="fill:#000" class="net_4"/>
  <line x1="518" x2="518" y1="479" y2="464" class="net_4"/>
  <line x1="394" x2="518" y1="554" y2="554" class="net_4"/>
  <line x1="518" x2="518" y1="554" y2="524" class="net_4"/>
  <line x1="394" x2="478" y1="554" y2="554" class="net_4"/>
  <line x1="478" x2="478" y1="554" y2="614" class="net_4"/>
  <line x1="478" x2="518" y1="614" y2="614" class="net_4"/>
  <line x1="518" x2="518" y1="614" y2="599" class="net_4"/>
  <line x1="588" x2="664" y1="479" y2="479" class="net_6,7,8,9"/>
  <line x1="528" x2="548" y1="389" y2="389" class="net_6"/>
  <line x1="548" x2="548" y1="389" y2="469" class="net_6"/>
  <line x1="548" x2="582" y1="469" y2="469" class="net_6"/>
  <line x1="528" x2="538" y1="449" y2="449" class="net_7"/>
  <line x1="538" x2="538" y1="449" y2="489" class="net_7"/>
  <line x1="538" x2="582" y1="489" y2="489" class="net_7"/>
  <line x1="528" x2="582" y1="509" y2="509" class="net_8"/>
  <line x1="528" x2="582.5" y1="584" y2="584" class="net_9"/>
  <line x1="582.5" x2="582.5" y1="584" y2="529.5" class="net_9"/>
</svg>
